<svg width="452" height="506" viewBox="0 0 452 506" fill="none" xmlns="http://www.w3.org/2000/svg">
<path d="M250.395 272.411C250.395 272.411 252.086 307.974 276.576 339.645C300.05 370.001 332.993 401.579 357.279 425.541C386.352 454.225 378.845 476.176 371.53 483.993C348.071 509.063 305.368 466.712 279.374 415.187C245.987 349.009 232.128 305.084 239.367 269.688C242.898 252.428 250.628 262.754 250.395 272.411Z" fill="#009ED5"/>
<path d="M250.395 272.411C250.395 272.411 252.086 307.974 276.576 339.645C300.05 370.001 332.993 401.579 357.279 425.541C386.352 454.225 378.845 476.176 371.53 483.993C348.071 509.063 305.368 466.712 279.374 415.187C245.987 349.009 232.128 305.084 239.367 269.688C242.898 252.428 250.628 262.754 250.395 272.411Z" stroke="#033E75" stroke-width="2.86602" stroke-linecap="round" stroke-linejoin="round"/>
<path d="M363.121 479.143C353.559 484.271 337.499 469.791 318.679 448.838C297.054 424.762 270.166 347.495 283.729 359.082C298.359 371.581 297.947 381.078 325.262 403.167C346.192 420.092 351.15 424.241 362.482 438.533C379.991 460.617 368.688 476.157 363.121 479.143Z" fill="#00C4F1"/>
<g opacity="0.4">
<path opacity="0.4" d="M359.612 448.09C353.743 451.252 342.091 432.816 347.914 430.587C353.738 428.358 366.282 444.498 359.612 448.09Z" fill="white"/>
</g>
<g opacity="0.4">
<path opacity="0.4" d="M344.924 427.934C341.36 430.068 333.622 421.54 337.452 419.352C341.282 417.164 348.488 425.8 344.924 427.934Z" fill="white"/>
</g>
<path d="M240.379 267.787C240.379 267.787 271.091 336.945 248.382 421.311C225.675 505.678 157.671 511.102 141.43 495.766C125.191 480.432 133.961 462.766 160.041 439.711C186.12 416.657 209.678 394.104 224.276 350.391C235.582 316.532 234.637 289.32 229.271 269.783C223.904 250.248 234.246 250.197 240.379 267.787Z" fill="#009ED5"/>
<path d="M240.379 267.787C240.379 267.787 271.091 336.945 248.382 421.311C225.675 505.678 157.671 511.102 141.43 495.766C125.191 480.432 133.961 462.766 160.041 439.711C186.12 416.657 209.678 394.104 224.276 350.391C235.582 316.532 234.637 289.32 229.271 269.783C223.904 250.248 234.246 250.197 240.379 267.787Z" stroke="#033E75" stroke-width="3.82136" stroke-linecap="round" stroke-linejoin="round"/>
<path d="M251.406 335.485C252.896 354.959 252.587 432.909 209.835 472.786C172.765 507.364 151.043 499.494 144.664 490.822C137.27 480.772 140.214 468.392 172.935 449.472C205.656 430.552 231.399 398.022 239.58 346.936C243.727 321.036 250.797 327.516 251.406 335.485Z" fill="#00C4F1"/>
<path d="M231.599 430.452C222.313 422.638 182.843 458.901 195.643 466.487C208.443 474.073 240.886 438.268 231.599 430.452Z" fill="#007DD2"/>
<path d="M189.81 468.707C185.762 463.958 167.288 472.758 173.625 480.492C179.961 488.225 196.431 476.476 189.81 468.707Z" fill="#007DD2"/>
<g opacity="0.4">
<path opacity="0.4" d="M198.338 456.243C190.185 446.423 152.102 469.482 162.985 481.16C173.869 492.838 207.737 467.564 198.338 456.243Z" fill="white"/>
</g>
<g opacity="0.4">
<path opacity="0.4" d="M216.333 438.116C211.71 432.4 197.367 444.037 203.552 448.531C209.734 453.023 220.081 442.751 216.333 438.116Z" fill="white"/>
</g>
<path d="M209.912 271.521C209.329 287.075 207.472 314.082 183.834 343.461C166.166 365.417 151.448 376.431 159.249 387.325C167.05 398.218 184.164 390.366 204.596 357.796C225.028 325.226 225.776 285.809 222.336 268.879C218.865 251.806 210.625 252.527 209.912 271.521Z" fill="#009ED5"/>
<path d="M209.912 271.521C209.329 287.075 207.472 314.082 183.834 343.461C166.166 365.417 151.448 376.431 159.249 387.325C167.05 398.218 184.164 390.366 204.596 357.796C225.028 325.226 225.776 285.809 222.336 268.879C218.865 251.806 210.625 252.527 209.912 271.521Z" stroke="#033E75" stroke-width="3.82136" stroke-linecap="round" stroke-linejoin="round"/>
<path d="M207.674 309.086C199.493 328.577 189.905 344.795 177.021 359.123C168.249 368.878 158.009 380.424 166.319 385.313C173.851 389.744 190.39 371.565 201.379 349.626C212.368 327.689 214.426 292.998 207.674 309.086Z" fill="#00C4F1"/>
<g opacity="0.4">
<path opacity="0.4" d="M171.894 368.512C166.757 368.29 162.045 378.304 166.312 379.065C170.578 379.826 175.908 368.686 171.894 368.512Z" fill="white"/>
</g>
<g opacity="0.4">
<path opacity="0.4" d="M179.559 359.312C177.265 358.204 173.17 364.263 175.544 365.169C177.917 366.074 181.451 360.224 179.559 359.312Z" fill="white"/>
</g>
<path d="M203.121 275.9C203.121 275.9 194.867 306.882 170.007 338.303C146.179 368.421 104.512 387.387 75.4606 405.323C40.6833 426.794 43.0711 449.861 48.4461 459.112C65.6823 488.778 116.814 457.028 153.719 412.611C201.119 355.561 220.998 308.764 214.179 273.29C210.852 255.992 203.001 266.24 203.121 275.9Z" fill="#009ED5"/>
<path d="M203.121 275.9C203.121 275.9 194.867 306.882 170.007 338.303C146.179 368.421 104.512 387.387 75.4606 405.323C40.6833 426.794 43.0711 449.861 48.4461 459.112C65.6823 488.778 116.814 457.028 153.719 412.611C201.119 355.561 220.998 308.764 214.179 273.29C210.852 255.992 203.001 266.24 203.121 275.9Z" stroke="#033E75" stroke-width="2.86606" stroke-linecap="round" stroke-linejoin="round"/>
<path d="M57.7303 456.261C65.8987 463.392 84.8046 452.863 107.853 436.639C134.336 417.997 177.893 348.692 162.072 356.959C145.005 365.878 143.273 375.226 111.69 390.659C87.4897 402.486 81.7255 405.423 67.4717 416.824C45.4467 434.442 52.974 452.109 57.7303 456.261Z" fill="#00C4F1"/>
<g opacity="0.4">
<path opacity="0.4" d="M68.1229 426.78C73.1341 431.17 88.6283 415.801 83.4539 412.33C78.2788 408.859 62.4276 421.79 68.1229 426.78Z" fill="white"/>
</g>
<g opacity="0.4">
<path opacity="0.4" d="M86.9653 410.411C89.9601 413.286 99.4169 406.702 96.1749 403.715C92.9329 400.728 83.9698 407.536 86.9653 410.411Z" fill="white"/>
</g>
<path d="M229.486 264.318C229.486 264.318 241.007 323.047 220.589 381.372C198.795 443.875 153.007 464.934 132.856 446.596C112.704 428.259 147.007 401.866 182.767 354.409C218.525 306.952 216.148 278.001 216.629 264.518C217.109 251.038 225.651 250.469 229.486 264.318Z" fill="#009ED5"/>
<path d="M229.486 264.318C229.486 264.318 241.007 323.047 220.589 381.372C198.795 443.874 153.007 464.934 132.856 446.596C112.704 428.259 147.007 401.866 182.767 354.409C218.525 306.952 216.148 278.001 216.629 264.518C217.109 251.038 225.651 250.469 229.486 264.318Z" stroke="#033E75" stroke-width="3.82136" stroke-linecap="round" stroke-linejoin="round"/>
<path d="M212.936 313.598C193.625 350.011 168.705 384.068 148.628 402.909C134.786 415.898 127.13 435.54 141.578 444.461C154.75 452.594 190.275 436.344 206.088 398.993C221.901 361.642 224.757 291.309 212.936 313.598Z" fill="#00C4F1"/>
<g opacity="0.4">
<path opacity="0.4" d="M170.846 391.583C163.629 387.592 135.425 417.735 145.842 422.885C156.259 428.034 182.254 397.892 170.846 391.583Z" fill="white"/>
</g>
<g opacity="0.4">
<path opacity="0.4" d="M185.315 374.675C180.94 372.408 171.637 383.054 177.057 386.355C182.476 389.657 189.691 376.941 185.315 374.675Z" fill="white"/>
</g>
<path d="M157.532 400.571C153.526 398.26 145.709 410.568 150.258 411.339C154.808 412.111 161.538 402.882 157.532 400.571Z" fill="white"/>
<path d="M162.605 392.909C159.533 392.589 157.221 398.229 160.984 398.06C164.749 397.891 165.35 393.194 162.605 392.909Z" fill="white"/>
<path d="M217.821 33.9939C185.677 31.4295 152.114 42.9666 115.921 95.2749C79.7273 147.584 58.0028 168.735 64.0841 207.864C70.1652 246.991 132.231 272.323 198.834 275.551C265.438 278.78 332.582 270.273 355.874 228.724C379.167 187.175 346.108 145.16 319.816 110.44C293.524 75.7222 271.723 38.294 217.821 33.9939Z" fill="#009ED5"/>
<path d="M217.821 33.9939C185.677 31.4295 152.114 42.9666 115.921 95.2749C79.7273 147.584 58.0028 168.735 64.0841 207.864C70.1652 246.991 132.231 272.323 198.834 275.551C265.438 278.78 332.582 270.273 355.874 228.724C379.167 187.175 346.108 145.16 319.816 110.44C293.524 75.7222 271.723 38.294 217.821 33.9939Z" stroke="#033E75" stroke-width="3.82136" stroke-linecap="round" stroke-linejoin="round"/>
<path d="M286.532 87.3041C273.214 67.116 255.938 42.2988 219.636 39.9891C183.334 37.6795 149.234 59.2615 117.122 117.443C85.0081 175.624 63.1157 205.533 111.689 241.449C160.264 277.364 290.656 271.894 325.873 239.069C361.089 206.246 345.972 177.407 286.532 87.3041Z" fill="#00C4F1"/>
<path d="M212.898 225.907C203.73 234.228 230.434 269.008 241.333 257.542C252.232 246.078 222.067 217.585 212.898 225.907Z" fill="#007DD2"/>
<path d="M192.517 229.552C185.248 233.815 198.935 251.017 204.594 246.566C210.254 242.115 199.996 225.165 192.517 229.552Z" fill="#007DD2"/>
<path d="M209.918 41.2359C204.142 48.1893 236.921 66.9383 242.633 57.0661C248.347 47.1939 217.908 31.6195 209.918 41.2359Z" fill="#007DD2"/>
<path d="M194.725 47.8181C189.288 52.4726 205.51 65.1319 209.21 59.5423C212.91 53.9539 201.094 42.3663 194.725 47.8181Z" fill="#007DD2"/>
<g opacity="0.4">
<path opacity="0.4" d="M235.722 170.134C231.428 175.871 246.07 188.765 252.241 182.285C258.411 175.807 240.018 164.396 235.722 170.134Z" fill="white"/>
</g>
<g opacity="0.4">
<path opacity="0.4" d="M256.861 182.419C255.271 187.261 266.987 188.565 267.898 183.976C268.808 179.387 258.452 177.579 256.861 182.419Z" fill="white"/>
</g>
<g opacity="0.4">
<path opacity="0.4" d="M336.148 162.17C322.485 163.567 324.963 201.644 340.246 199.266C355.528 196.887 349.811 160.773 336.148 162.17Z" fill="white"/>
</g>
<g opacity="0.4">
<path opacity="0.4" d="M343.017 207.083C335.832 203.967 325.605 218.335 333.755 223.309C341.903 228.281 350.634 210.388 343.017 207.083Z" fill="white"/>
</g>
<path d="M241.743 110.863C240.169 133.475 249.85 164.377 280.359 161.126C310.866 157.876 315.641 126.245 307.235 105.844C298.829 85.4401 243.025 92.4283 241.743 110.863Z" fill="#009ED5"/>
<path d="M292.937 147.475C291.125 148.445 289.139 149.285 286.967 149.983C282.056 151.576 277.517 152.118 273.382 151.785C246.801 149.672 236.132 111.979 244.026 88.3426C246.497 80.9518 250.78 74.9407 256.953 71.8187C257.72 71.4344 258.512 71.0866 259.33 70.7966C294.218 58.2558 330.004 127.875 292.937 147.475Z" fill="white"/>
<path d="M292.937 147.475C291.125 148.445 289.139 149.285 286.967 149.983C282.056 151.576 277.517 152.118 273.382 151.785C246.801 149.672 236.132 111.979 244.026 88.3426C246.497 80.9518 250.78 74.9407 256.953 71.8187C257.72 71.4344 258.512 71.0866 259.33 70.7966C294.218 58.2558 330.004 127.875 292.937 147.475Z" stroke="#122444" stroke-width="3.43923" stroke-linecap="round" stroke-linejoin="round"/>
<path d="M291.461 145.833C289.754 146.74 281.595 150.613 273.052 149.455C248.184 146.082 238.341 112.3 245.792 90.1984C248.124 83.2865 251.556 77.3895 257.371 74.4675C271.625 78.2752 285.18 92.333 290.924 111.277C294.594 123.366 294.526 135.832 291.461 145.833Z" fill="#96EFFF"/>
<path d="M273.769 151.885C246.834 149.744 236.02 111.55 244.021 87.5992C244.341 87.4831 244.665 87.3755 244.989 87.2792C259.083 83.0275 275.17 95.0588 280.935 114.158C285.473 129.197 282.242 144.141 273.769 151.885Z" fill="#122444"/>
<path d="M265.938 77.3211C254.679 85.863 275.941 109.635 284.555 100.188C293.167 90.7412 275.563 70.0363 265.938 77.3211Z" fill="white"/>
<path d="M258.179 97.2205C250.119 101.069 260.037 121.116 268.156 115.339C276.292 109.551 265.444 93.7523 258.179 97.2205Z" fill="white"/>
<path d="M188.204 112.37C188.204 112.37 189.137 152.622 163.374 161.002C137.609 169.383 116.121 148.111 120.261 125.19C124.403 102.269 189.876 95.8193 188.204 112.37Z" fill="#009ED5"/>
<path d="M136.026 148.006C137.825 148.998 139.8 149.864 141.962 150.593C146.853 152.249 151.385 152.849 155.523 152.571C182.13 150.805 193.288 113.257 185.7 89.5183C183.326 82.0962 179.12 76.0286 172.988 72.8261C172.227 72.4322 171.441 72.0748 170.627 71.7732C135.904 58.7765 99.2178 127.922 136.026 148.006Z" fill="white"/>
<path d="M136.026 148.006C137.825 148.998 139.8 149.864 141.962 150.593C146.853 152.249 151.385 152.849 155.523 152.571C182.13 150.805 193.288 113.257 185.7 89.5183C183.326 82.0962 179.12 76.0286 172.988 72.8261C172.227 72.4322 171.441 72.0748 170.627 71.7732C135.904 58.7765 99.2178 127.922 136.026 148.006Z" stroke="#122444" stroke-width="3.43923" stroke-linecap="round" stroke-linejoin="round"/>
<path d="M137.524 146.383C139.219 147.313 147.327 151.289 155.883 150.244C180.793 147.2 191.072 113.566 183.909 91.3778C181.664 84.4395 178.309 78.5001 172.534 75.5029C158.231 79.1212 144.495 92.9947 138.506 111.852C134.68 123.887 134.589 136.347 137.524 146.383Z" fill="#96EFFF"/>
<path d="M155.136 152.666C182.097 150.878 193.404 112.828 185.716 88.774C185.396 88.6534 185.075 88.543 184.753 88.4428C170.714 84.0066 154.472 95.8264 148.46 114.847C143.727 129.826 146.764 144.813 155.136 152.666Z" fill="#122444"/>
<path d="M161.256 79.6804C172.697 85.3281 158.751 112.904 146.511 104.739C135.967 97.5637 150.947 74.5911 161.256 79.6804Z" fill="white"/>
<path d="M168.642 102.149C177.56 106.449 167.108 125.396 158.675 119.752C151.294 114.725 161.393 98.6466 168.642 102.149Z" fill="white"/>
<path d="M308.569 123.842C309.694 129.853 296.635 146.1 281.316 149.74C270.658 152.273 258.461 149.722 246.559 134.742C250.164 142.805 256.012 164.406 282.828 158.131C302.787 153.461 313.326 134.6 308.569 123.842Z" fill="#009ED6"/>
<path d="M239.783 107.216C241.346 103.871 250.724 89.0809 265.885 84.829C276.433 81.8708 292.07 83.1204 303.116 94.4991C301.134 88.96 295.956 79.5993 286.667 72.9398C280.618 68.6929 271.205 64.4053 260.238 67.4343C241.749 72.3406 236.252 94.3083 239.783 107.216Z" fill="#009ED6"/>
<path d="M119.873 126.67C120.147 135.316 132.953 149.064 148.41 152.061C159.165 154.146 174.599 153.905 183.957 134.051C180.692 142.257 174.044 163.817 146.988 158.669C126.852 154.837 118.63 140.456 119.873 126.67Z" fill="#009ED6"/>
<path d="M189.575 106.264C187.873 102.987 177.883 88.6027 162.558 84.9887C151.895 82.4742 134.855 84.4524 124.295 96.2832C126.043 90.666 132.294 81.0214 141.295 73.9792C147.161 69.483 156.386 64.8055 167.471 67.373C186.15 71.5017 192.562 93.2202 189.575 106.264Z" fill="#009ED6"/>
<path d="M226.704 128.248C226.298 147.176 222.17 157.087 217.141 157.944C211.312 158.937 203.636 150.186 205.145 127.899C204.173 143.784 207.865 158.142 216.994 157.817C225.203 157.525 226.101 138.618 226.704 128.248Z" fill="#21385B"/>
<path d="M226.704 128.248C226.298 147.176 222.17 157.087 217.141 157.944C211.312 158.937 203.636 150.186 205.145 127.899C204.173 143.784 207.865 158.142 216.994 157.817C225.203 157.525 226.101 138.618 226.704 128.248Z" stroke="#122444" stroke-width="3.82136" stroke-linecap="round" stroke-linejoin="round"/>
<path d="M104.65 268.891C78.2405 260.373 35.4659 238.684 46.9513 182.316C55.1478 142.088 84.9637 109.829 105.503 85.5711C126.042 61.3132 150.426 17.3677 215.231 16.7423C280.036 16.1182 307.007 74.3064 314.961 82.2766C322.914 90.2467 370.715 140.564 376.712 188.625C385.09 255.774 341.278 268.169 341.278 268.169C341.278 268.169 355.125 299.459 322.429 307.487C289.732 315.514 279.207 289.819 251.821 295.775C225.105 301.584 227.275 318.526 207.125 314.317C182.515 309.175 193.802 299.318 170.351 301.273C151.513 302.842 155.107 317.643 137.919 314.044C119.198 310.123 124.467 292.148 107.537 291.59C88.3395 290.956 78.9242 297.622 74.0081 285.271C69.0918 272.919 87.3478 261.312 87.3478 261.312" stroke="#033E75" stroke-width="3.82136" stroke-linecap="round" stroke-linejoin="round"/>
<path d="M344.109 267.226C326.867 277.748 302.028 280.492 302.028 280.492" stroke="#033E75" stroke-width="3.82136" stroke-linecap="round" stroke-linejoin="round"/>
<path d="M116.491 271.529C124.731 273.811 131.207 282.456 148.769 278.123" stroke="#033E75" stroke-width="3.82136" stroke-linecap="round" stroke-linejoin="round"/>
<path d="M172.547 280.324C182.329 289.433 205.088 285.836 209.795 279.592" stroke="#033E75" stroke-width="3.82136" stroke-linecap="round" stroke-linejoin="round"/>
<g opacity="0.4">
<path opacity="0.4" d="M140.549 94.7438C119.959 85.3544 64.5708 145.644 97.2349 168.99C129.899 192.336 169.664 108.021 140.549 94.7438Z" fill="white"/>
</g>
<g opacity="0.4">
<path opacity="0.4" d="M82.1525 180.686C74.1008 179.532 56.7195 204.632 73.0753 209.756C90.0948 215.088 95.3155 182.573 82.1525 180.686Z" fill="white"/>
</g>
<g opacity="0.4">
<path opacity="0.4" d="M178.202 34.5003C189.816 39.3896 162.988 75.2663 152.13 64.7335C141.274 54.203 170.163 31.116 178.202 34.5003Z" fill="white"/>
</g>
</svg>
