<svg width="48" height="48" viewBox="0 0 48 48" fill="none" xmlns="http://www.w3.org/2000/svg">
<g filter="url(#filter0_d_1065_807)">
<path d="M39.2381 19.0476H36.381V11.4286C36.381 9.31429 34.6667 7.61905 32.5714 7.61905H24.9524V4.7619C24.9524 3.49897 24.4507 2.28776 23.5577 1.39473C22.6646 0.501699 21.4534 0 20.1905 0C18.9275 0 17.7163 0.501699 16.8233 1.39473C15.9303 2.28776 15.4286 3.49897 15.4286 4.7619V7.61905H7.80952C6.79918 7.61905 5.83021 8.02041 5.11578 8.73483C4.40136 9.44925 4 10.4182 4 11.4286V18.6667H6.85714C9.71429 18.6667 12 20.9524 12 23.8095C12 26.6667 9.71429 28.9524 6.85714 28.9524H4V36.1905C4 37.2008 4.40136 38.1698 5.11578 38.8842C5.83021 39.5986 6.79918 40 7.80952 40H15.0476V37.1429C15.0476 34.2857 17.3333 32 20.1905 32C23.0476 32 25.3333 34.2857 25.3333 37.1429V40H32.5714C33.5818 40 34.5507 39.5986 35.2652 38.8842C35.9796 38.1698 36.381 37.2008 36.381 36.1905V28.5714H39.2381C40.501 28.5714 41.7122 28.0697 42.6053 27.1767C43.4983 26.2837 44 25.0725 44 23.8095C44 22.5466 43.4983 21.3354 42.6053 20.4423C41.7122 19.5493 40.501 19.0476 39.2381 19.0476Z" fill="#374151"/>
<path d="M35.881 19.0476V19.5476H36.381H39.2381C40.3684 19.5476 41.4525 19.9966 42.2517 20.7959C43.051 21.5952 43.5 22.6792 43.5 23.8095C43.5 24.9399 43.051 26.0239 42.2517 26.8231C41.4525 27.6224 40.3684 28.0714 39.2381 28.0714H36.381H35.881V28.5714V36.1905C35.881 37.0682 35.5323 37.91 34.9116 38.5307C34.291 39.1513 33.4492 39.5 32.5714 39.5H25.8333V37.1429C25.8333 34.0096 23.3238 31.5 20.1905 31.5C17.0572 31.5 14.5476 34.0096 14.5476 37.1429V39.5H7.80952C6.93178 39.5 6.08999 39.1513 5.46934 38.5307C4.84868 37.91 4.5 37.0682 4.5 36.1905V29.4524H6.85714C9.99043 29.4524 12.5 26.9428 12.5 23.8095C12.5 20.6762 9.99043 18.1667 6.85714 18.1667H4.5V11.4286C4.5 10.5508 4.84868 9.70904 5.46934 9.08838C6.08999 8.46773 6.93178 8.11905 7.80952 8.11905H15.4286H15.9286V7.61905V4.7619C15.9286 3.63158 16.3776 2.54755 17.1769 1.74828C17.9761 0.949021 19.0601 0.5 20.1905 0.5C21.3208 0.5 22.4048 0.949021 23.2041 1.74828C24.0034 2.54755 24.4524 3.63158 24.4524 4.7619V7.61905V8.11905H24.9524H32.5714C34.3922 8.11905 35.881 9.59205 35.881 11.4286V19.0476Z" stroke="white"/>
</g>
<defs>
<filter id="filter0_d_1065_807" x="0" y="0" width="48" height="48" filterUnits="userSpaceOnUse" color-interpolation-filters="sRGB">
<feFlood flood-opacity="0" result="BackgroundImageFix"/>
<feColorMatrix in="SourceAlpha" type="matrix" values="0 0 0 0 0 0 0 0 0 0 0 0 0 0 0 0 0 0 127 0" result="hardAlpha"/>
<feOffset dy="4"/>
<feGaussianBlur stdDeviation="2"/>
<feComposite in2="hardAlpha" operator="out"/>
<feColorMatrix type="matrix" values="0 0 0 0 0 0 0 0 0 0 0 0 0 0 0 0 0 0 0.25 0"/>
<feBlend mode="normal" in2="BackgroundImageFix" result="effect1_dropShadow_1065_807"/>
<feBlend mode="normal" in="SourceGraphic" in2="effect1_dropShadow_1065_807" result="shape"/>
</filter>
</defs>
</svg>
