<svg xmlns="http://www.w3.org/2000/svg" xmlns:xlink="http://www.w3.org/1999/xlink" width="100" height="100" style=""><rect id="backgroundrect" width="100%" height="100%" x="0" y="0" fill="none" stroke="none"/><g class="currentLayer" style=""><title>Layer 1</title><g id="svg_2" class=""><g transform="matrix(0.9793763408293986,0,0,0.979376323102201,17.460193597144922,17.48535425358397) " style="fill:#ffffff" id="svg_1"><svg xmlns="http://www.w3.org/2000/svg" xmlns:xlink="http://www.w3.org/1999/xlink" fill="#ffffff" version="1.1" x="-16.655552190642236" y="-16.681242533671153" viewBox="0 0 48 48" enable-background="new 0 0 48 48" xml:space="preserve" id="svg_3"><g id="svg_4"><g id="svg_5"><path fill="#ffffff" d="M24,47.5C11,47.5,0.5,37,0.5,24c0-0.8,0.7-1.5,1.5-1.5s1.5,0.7,1.5,1.5c0,11.3,9.2,20.5,20.5,20.5    S44.5,35.3,44.5,24c0-10.8-8.4-19.7-19-20.4v5.3c0,0.8-0.7,1.5-1.5,1.5s-1.5-0.7-1.5-1.5V2c0-0.8,0.7-1.5,1.5-1.5    C37,0.5,47.5,11,47.5,24S37,47.5,24,47.5z" id="svg_6"/></g><path fill="#ffffff" d="M27.8,23.8c0-0.1,0-0.2,0.1-0.3l8.2-11.3c0.2-0.2,0.1-0.5-0.1-0.7c-0.2-0.2-0.5-0.2-0.7,0l-10.8,8.9   c-0.1,0.1-0.2,0.1-0.3,0.1c-1.2,0-2.4,0.6-3.1,1.8c-0.6,1.1-0.6,2.6,0.1,3.7c1.3,2,4,2.1,5.5,0.5C27.6,25.7,27.9,24.7,27.8,23.8z" id="svg_7"/></g></svg></g></g></g></svg>