<svg fill="#ffffff" xmlns="http://www.w3.org/2000/svg" xmlns:xlink="http://www.w3.org/1999/xlink" xml:space="preserve" version="1.1" style="shape-rendering:geometricPrecision;text-rendering:geometricPrecision;image-rendering:optimizeQuality;" viewBox="0 0 847 847" x="0px" y="0px" fill-rule="evenodd" clip-rule="evenodd"><defs><style type="text/css">
   
    .fil0 {fill:#ffffff}
   
  </style></defs><g><rect class="fil0" transform="matrix(-1.75654E-014 -0.663233 -0.663233 1.75654E-014 387.97 633.209)" width="633" height="184" rx="92" ry="92"></rect><rect class="fil0" transform="matrix(-1.75654E-014 -0.663233 -0.663233 1.75654E-014 580.997 633.209)" width="633" height="184" rx="92" ry="92"></rect><path class="fil0" d="M830 423c0,225 -182,407 -407,407 -224,0 -406,-182 -406,-407 0,-224 182,-406 406,-406 225,0 407,182 407,406zm-50 0c0,198 -159,357 -357,357 -197,0 -357,-159 -357,-357 0,-197 160,-357 357,-357 198,0 357,160 357,357z"></path></g></svg>
