<svg xmlns="http://www.w3.org/2000/svg" viewBox="0 0 275 192" class="pulsate">
<path d="M261.088 24.808c-.993 3.814-15.13 58.16-15.486 59.496-.956 3.52-4.825 6.075-9.208 6.075h-58.902l39.04 20.55c9.205 5.23 12.102 12.63 9.13 23.29-.16.58-5.146 20.37-8.07 31.994-2.96 10.91-13.523 11.76-16.69 11.76-4.37 0-8.71-1.218-12.213-3.42-6.43-4.038-11.3-12.81-12.58-15.28l-31.02-63.16c5.84-13.695 38.64-82.147 107.94-82.405 2.58 0 4.65.93 6.153 2.76 1.763 2.15 2.464 5.25 1.895 8.326M98.942 159.156c-1.34 2.596-6.21 11.37-12.636 15.414-3.504 2.2-7.84 3.416-12.213 3.416-3.166 0-13.73-.846-16.657-11.637-2.378-9.45-7.928-31.49-8.098-32.12-2.974-10.66-.077-18.07 8.93-23.19l39.24-20.664H38.62c-4.394 0-8.27-2.56-9.22-6.06-.317-1.19-14.5-55.7-15.494-59.52-.568-3.077.137-6.18 1.902-8.33 1.498-1.83 3.57-2.76 6.197-2.76 69.468.26 102.275 69.166 107.913 82.386l-30.975 63.06zm170.86-151.37C265.688 2.767 259.736 0 252.94 0c-65.88.247-101.812 53.958-115.45 80.305C123.822 53.963 87.828.247 21.956 0c-6.7 0-12.648 2.763-16.76 7.784-4.378 5.334-6.138 12.77-4.71 19.89l.085.38s15.28 58.706 15.58 59.84c2.59 9.54 11.83 16.205 22.47 16.205h5.96c-9.26 8.39-12.262 20.11-8.47 33.74.307 1.16 8.03 31.85 8.06 31.97 3.65 13.51 15.12 21.89 29.925 21.89 6.927 0 13.86-1.96 19.52-5.52 8.78-5.52 14.75-15.36 17.584-20.856l26.297-53.54 26.37 53.66c2.78 5.37 8.75 15.206 17.52 20.72 5.67 3.563 12.6 5.524 19.52 5.524 14.81 0 26.28-8.38 29.97-22.003 0 0 7.698-30.585 8.013-31.784 3.807-13.655.82-25.37-8.5-33.817h6.01c10.636 0 19.866-6.666 22.454-16.207.3-1.116 14.008-53.836 15.575-59.84l.083-.38c1.426-7.12-.33-14.558-4.706-19.89" fill="#fff" />
</svg>
