<svg width="1194" height="256" viewBox="0 0 1194 256" fill="none" xmlns="http://www.w3.org/2000/svg">
<path d="M256 128C256 153.316 248.493 178.063 234.428 199.113C220.363 220.162 200.372 236.569 176.983 246.257C153.595 255.945 127.858 258.479 103.028 253.541C78.1989 248.602 55.3914 236.411 37.4903 218.51C19.5892 200.609 7.39839 177.801 2.45948 152.972C-2.47942 128.142 0.055403 102.405 9.74342 79.0165C19.4314 55.6276 35.8375 35.6367 56.887 21.5719C77.9365 7.50707 102.684 -3.0189e-07 128 0L128 12.8C105.216 12.8 82.9428 19.5564 63.9983 32.2147C45.0538 44.873 30.2883 62.8648 21.5691 83.9149C12.8499 104.965 10.5685 128.128 15.0135 150.474C19.4586 172.821 30.4303 193.348 46.5413 209.459C62.6523 225.57 83.179 236.541 105.526 240.986C127.872 245.431 151.035 243.15 172.085 234.431C193.135 225.712 211.127 210.946 223.785 192.002C236.444 173.057 243.2 150.784 243.2 128H256Z" fill="#5A6EA0"/>
<path d="M146.95 1.41055C174.252 5.49753 199.5 18.3014 218.929 37.9121C238.359 57.5228 250.927 82.8893 254.76 110.228L242.084 112.005C238.634 87.4004 227.323 64.5705 209.837 46.9209C192.35 29.2713 169.627 17.7478 145.055 14.0695L146.95 1.41055Z" fill="#E87961"/>
<path d="M40.1292 64.5778C49.361 51.7872 61.274 41.1662 75.0359 33.4566C88.7978 25.7471 104.077 21.1349 119.806 19.9421C135.535 18.7494 151.335 21.0049 166.102 26.5511C180.869 32.0973 194.247 40.8005 205.302 52.0528C216.357 63.3051 224.823 76.8352 230.107 91.6981C235.391 106.561 237.367 122.398 235.896 138.104C234.425 153.809 229.544 169.004 221.592 182.628C213.64 196.251 202.81 207.974 189.858 216.979L183.672 208.081C195.329 199.977 205.076 189.426 212.233 177.165C219.389 164.904 223.783 151.228 225.106 137.093C226.43 122.958 224.652 108.705 219.896 95.3283C215.14 81.9517 207.522 69.7746 197.572 59.6475C187.623 49.5205 175.582 41.6876 162.292 36.696C149.001 31.7044 134.782 29.6745 120.625 30.7479C106.469 31.8214 92.718 35.9724 80.3323 42.911C67.9466 49.8496 57.2249 59.4085 48.9163 70.9201L40.1292 64.5778Z" fill="#FFBD7A"/>
<path d="M166.003 229.486C139.087 239.565 109.27 238.539 83.1107 226.634L87.5996 216.77C111.143 227.485 137.978 228.409 162.203 219.337L166.003 229.486Z" fill="#E87961"/>
<path d="M72.4877 221.07C60.2656 213.78 49.599 204.154 41.097 192.742C32.595 181.33 26.424 168.354 22.9364 154.557C19.4489 140.76 18.713 126.411 20.7709 112.33C22.8287 98.2482 27.64 84.7099 34.9299 72.4877L44.237 78.039C37.676 89.0389 33.3458 101.223 31.4938 113.897C29.6417 126.57 30.304 139.484 33.4428 151.902C36.5816 164.319 42.1355 175.997 49.7873 186.268C57.4391 196.539 67.039 205.202 78.039 211.763L72.4877 221.07Z" fill="#459292"/>
<path d="M129.446 39.2756C146.066 39.5464 162.277 44.4803 176.23 53.5151C190.183 62.5499 201.318 75.3223 208.366 90.3771C215.413 105.432 218.091 122.164 216.093 138.666C214.095 155.168 207.502 170.778 197.065 183.715C186.628 196.653 172.766 206.399 157.06 211.843C141.354 217.287 124.434 218.209 108.229 214.506C92.0245 210.802 77.1856 202.621 65.4035 190.895C53.6215 179.169 45.3701 164.369 41.5894 148.182L50.2305 146.164C53.6331 160.732 61.0593 174.052 71.6632 184.606C82.267 195.159 95.622 202.522 110.207 205.855C124.791 209.188 140.019 208.358 154.154 203.459C168.29 198.559 180.765 189.788 190.158 178.144C199.552 166.5 205.485 152.451 207.284 137.599C209.082 122.747 206.672 107.689 200.329 94.1394C193.986 80.5901 183.965 69.0949 171.407 60.9636C158.849 52.8322 144.26 48.3917 129.301 48.148L129.446 39.2756Z" fill="#5A6EA0"/>
<path d="M39.3833 132.603C38.2522 110.825 45.1799 89.3932 58.8442 72.398C72.5085 55.4028 91.9526 44.0343 113.465 40.4623L114.919 49.2161C95.5573 52.4309 78.0577 62.6625 65.7598 77.9582C53.4619 93.2539 47.227 112.542 48.245 132.142L39.3833 132.603Z" fill="#459292"/>
<path d="M179.315 173.197C172.361 181.092 163.679 187.276 153.945 191.268C144.21 195.26 133.686 196.952 123.191 196.212C112.696 195.472 102.513 192.32 93.4353 187.002C84.3573 181.684 76.6289 174.343 70.8515 165.55C65.074 156.757 61.4034 146.75 60.1253 136.307C58.8472 125.864 59.9961 115.267 63.4825 105.34C66.9689 95.4135 72.6989 86.4253 80.2264 79.0749C87.754 71.7246 96.8761 66.2103 106.883 62.9612L108.995 69.4651C99.9885 72.3893 91.7786 77.3521 85.0038 83.9674C78.229 90.5828 73.072 98.6722 69.9343 107.606C66.7965 116.54 65.7625 126.078 66.9128 135.476C68.0631 144.875 71.3666 153.882 76.5663 161.795C81.766 169.709 88.7216 176.316 96.8918 181.102C105.062 185.888 114.226 188.725 123.672 189.391C133.117 190.057 142.589 188.534 151.35 184.941C160.111 181.349 167.925 175.783 174.183 168.677L179.315 173.197Z" fill="#E87961"/>
<rect x="118.184" y="62.0368" width="19.2393" height="76.5644" rx="9.61963" fill="black" fill-opacity="0.4"/>
<rect x="115.102" y="133.858" width="19.2393" height="73.0189" rx="9.61963" transform="rotate(-65.9935 115.102 133.858)" fill="black" fill-opacity="0.4"/>
<path d="M362.168 174.708C369.784 174.708 375.328 173.42 378.8 170.844C382.272 168.268 384.008 164.628 384.008 159.924C384.008 157.124 383.392 154.716 382.16 152.7C381.04 150.684 379.36 148.892 377.12 147.324C374.992 145.644 372.36 144.132 369.224 142.788C366.088 141.332 362.504 139.932 358.472 138.588C354.44 137.132 350.52 135.564 346.712 133.884C343.016 132.092 339.712 129.908 336.8 127.332C334 124.756 331.704 121.676 329.912 118.092C328.232 114.508 327.392 110.196 327.392 105.156C327.392 94.628 331.032 86.396 338.312 80.46C345.592 74.412 355.504 71.388 368.048 71.388C375.328 71.388 381.768 72.228 387.368 73.908C393.08 75.476 397.56 77.212 400.808 79.116L394.256 96.252C390.448 94.124 386.248 92.5 381.656 91.38C377.176 90.26 372.528 89.7 367.712 89.7C362 89.7 357.52 90.876 354.272 93.228C351.136 95.58 349.568 98.884 349.568 103.14C349.568 105.716 350.072 107.956 351.08 109.86C352.2 111.652 353.712 113.276 355.616 114.732C357.632 116.188 359.928 117.532 362.504 118.764C365.192 119.996 368.104 121.172 371.24 122.292C376.728 124.308 381.6 126.38 385.856 128.508C390.224 130.524 393.864 132.988 396.776 135.9C399.8 138.7 402.096 142.06 403.664 145.98C405.232 149.788 406.016 154.436 406.016 159.924C406.016 170.452 402.264 178.628 394.76 184.452C387.368 190.164 376.504 193.02 362.168 193.02C357.352 193.02 352.928 192.684 348.896 192.012C344.976 191.452 341.448 190.724 338.312 189.828C335.288 188.932 332.656 188.036 330.416 187.14C328.176 186.132 326.384 185.236 325.04 184.452L331.256 167.148C334.28 168.828 338.368 170.508 343.52 172.188C348.672 173.868 354.888 174.708 362.168 174.708ZM422.655 79.452L442.983 76.092V102.636H474.231V119.604H442.983V155.388C442.983 162.444 444.103 167.484 446.343 170.508C448.583 173.532 452.391 175.044 457.767 175.044C461.463 175.044 464.711 174.652 467.511 173.868C470.423 173.084 472.719 172.356 474.399 171.684L477.759 187.812C475.407 188.82 472.327 189.828 468.519 190.836C464.711 191.956 460.231 192.516 455.079 192.516C448.807 192.516 443.543 191.676 439.287 189.996C435.143 188.316 431.839 185.908 429.375 182.772C426.911 179.524 425.175 175.66 424.167 171.18C423.159 166.588 422.655 161.38 422.655 155.556V79.452ZM524.793 176.22C531.065 176.22 535.825 175.884 539.073 175.212V152.7C537.953 152.364 536.329 152.028 534.201 151.692C532.073 151.356 529.721 151.188 527.145 151.188C524.905 151.188 522.609 151.356 520.257 151.692C518.017 152.028 515.945 152.644 514.041 153.54C512.249 154.436 510.793 155.724 509.673 157.404C508.553 158.972 507.993 160.988 507.993 163.452C507.993 168.268 509.505 171.628 512.529 173.532C515.553 175.324 519.641 176.22 524.793 176.22ZM523.113 100.452C529.833 100.452 535.489 101.292 540.081 102.972C544.673 104.652 548.313 107.004 551.001 110.028C553.801 113.052 555.761 116.748 556.881 121.116C558.113 125.372 558.729 130.076 558.729 135.228V188.484C555.593 189.156 550.833 189.94 544.449 190.836C538.177 191.844 531.065 192.348 523.113 192.348C517.849 192.348 513.033 191.844 508.665 190.836C504.297 189.828 500.545 188.204 497.409 185.964C494.385 183.724 491.977 180.812 490.185 177.228C488.505 173.644 487.665 169.22 487.665 163.956C487.665 158.916 488.617 154.66 490.521 151.188C492.537 147.716 495.225 144.916 498.585 142.788C501.945 140.548 505.809 138.98 510.177 138.084C514.657 137.076 519.305 136.572 524.121 136.572C526.361 136.572 528.713 136.74 531.177 137.076C533.641 137.3 536.273 137.748 539.073 138.42V135.06C539.073 132.708 538.793 130.468 538.233 128.34C537.673 126.212 536.665 124.364 535.209 122.796C533.865 121.116 532.017 119.828 529.665 118.932C527.425 118.036 524.569 117.588 521.097 117.588C516.393 117.588 512.081 117.924 508.161 118.596C504.241 119.268 501.049 120.052 498.585 120.948L496.065 104.484C498.641 103.588 502.393 102.692 507.321 101.796C512.249 100.9 517.513 100.452 523.113 100.452ZM655.36 102.636C646.288 136.012 635.76 166.252 623.776 193.356C621.536 198.396 619.24 202.708 616.888 206.292C614.536 209.876 611.904 212.844 608.992 215.196C606.08 217.548 602.832 219.228 599.248 220.236C595.664 221.356 591.52 221.916 586.816 221.916C583.68 221.916 580.544 221.58 577.408 220.908C574.384 220.236 572.088 219.508 570.519 218.724L574.216 202.428C578.248 203.996 582.224 204.78 586.144 204.78C591.408 204.78 595.496 203.492 598.408 200.916C601.432 198.452 604.064 194.588 606.304 189.324C599.92 177.004 593.76 163.564 587.824 149.004C582 134.444 576.792 118.988 572.2 102.636H593.872C594.992 107.34 596.336 112.436 597.904 117.924C599.584 123.412 601.376 129.012 603.28 134.724C605.184 140.324 607.2 145.924 609.328 151.524C611.456 157.124 613.584 162.332 615.712 167.148C619.296 157.18 622.656 146.596 625.792 135.396C628.928 124.084 631.784 113.164 634.36 102.636H655.36ZM669.229 190.5V74.076H742.813V92.052H690.397V121.788H736.933V139.764H690.397V190.5H669.229ZM835.176 146.484C835.176 153.428 834.168 159.756 832.152 165.468C830.136 171.18 827.28 176.052 823.584 180.084C819.888 184.116 815.408 187.252 810.144 189.492C804.992 191.732 799.28 192.852 793.008 192.852C786.736 192.852 781.024 191.732 775.872 189.492C770.72 187.252 766.296 184.116 762.6 180.084C758.904 176.052 755.992 171.18 753.864 165.468C751.848 159.756 750.84 153.428 750.84 146.484C750.84 139.54 751.848 133.268 753.864 127.668C755.992 121.956 758.904 117.084 762.6 113.052C766.408 109.02 770.888 105.94 776.04 103.812C781.192 101.572 786.848 100.452 793.008 100.452C799.168 100.452 804.824 101.572 809.976 103.812C815.24 105.94 819.72 109.02 823.416 113.052C827.112 117.084 829.968 121.956 831.984 127.668C834.112 133.268 835.176 139.54 835.176 146.484ZM814.344 146.484C814.344 137.748 812.44 130.86 808.632 125.82C804.936 120.668 799.728 118.092 793.008 118.092C786.288 118.092 781.024 120.668 777.216 125.82C773.52 130.86 771.672 137.748 771.672 146.484C771.672 155.332 773.52 162.332 777.216 167.484C781.024 172.636 786.288 175.212 793.008 175.212C799.728 175.212 804.936 172.636 808.632 167.484C812.44 162.332 814.344 155.332 814.344 146.484ZM848.726 146.652C848.726 140.156 849.734 134.108 851.75 128.508C853.766 122.796 856.622 117.868 860.318 113.724C864.126 109.58 868.718 106.332 874.094 103.98C879.47 101.628 885.518 100.452 892.238 100.452C900.526 100.452 908.366 101.964 915.758 104.988L911.39 121.62C909.038 120.612 906.35 119.772 903.326 119.1C900.414 118.428 897.278 118.092 893.918 118.092C885.966 118.092 879.918 120.612 875.774 125.652C871.63 130.58 869.558 137.58 869.558 146.652C869.558 155.388 871.518 162.332 875.438 167.484C879.358 172.524 885.966 175.044 895.262 175.044C898.734 175.044 902.15 174.708 905.51 174.036C908.87 173.364 911.782 172.524 914.246 171.516L917.102 188.316C914.862 189.436 911.446 190.444 906.854 191.34C902.374 192.236 897.726 192.684 892.91 192.684C885.406 192.684 878.854 191.564 873.254 189.324C867.766 186.972 863.174 183.78 859.478 179.748C855.894 175.604 853.206 170.732 851.414 165.132C849.622 159.42 848.726 153.26 848.726 146.652ZM1004.91 187.812C1000.99 188.82 995.896 189.828 989.624 190.836C983.352 191.956 976.464 192.516 968.96 192.516C961.904 192.516 955.968 191.508 951.152 189.492C946.448 187.476 942.64 184.676 939.728 181.092C936.928 177.508 934.912 173.252 933.68 168.324C932.448 163.284 931.832 157.796 931.832 151.86V102.636H952.16V148.668C952.16 158.076 953.504 164.796 956.192 168.828C958.992 172.86 963.808 174.876 970.64 174.876C973.104 174.876 975.68 174.764 978.368 174.54C981.168 174.316 983.24 174.036 984.584 173.7V102.636H1004.91V187.812ZM1052.79 175.884C1058.17 175.884 1062.09 175.268 1064.55 174.036C1067.02 172.692 1068.25 170.452 1068.25 167.316C1068.25 164.404 1066.91 161.996 1064.22 160.092C1061.64 158.188 1057.33 156.116 1051.28 153.876C1047.59 152.532 1044.17 151.132 1041.03 149.676C1038.01 148.108 1035.38 146.316 1033.14 144.3C1030.9 142.284 1029.11 139.876 1027.76 137.076C1026.53 134.164 1025.91 130.636 1025.91 126.492C1025.91 118.428 1028.88 112.1 1034.82 107.508C1040.75 102.804 1048.82 100.452 1059.01 100.452C1064.16 100.452 1069.09 100.956 1073.79 101.964C1078.5 102.86 1082.03 103.756 1084.38 104.652L1080.68 121.116C1078.44 120.108 1075.59 119.212 1072.11 118.428C1068.64 117.532 1064.61 117.084 1060.02 117.084C1055.87 117.084 1052.51 117.812 1049.94 119.268C1047.36 120.612 1046.07 122.74 1046.07 125.652C1046.07 127.108 1046.3 128.396 1046.75 129.516C1047.31 130.636 1048.2 131.7 1049.43 132.708C1050.67 133.604 1052.29 134.556 1054.31 135.564C1056.32 136.46 1058.79 137.412 1061.7 138.42C1066.51 140.212 1070.6 142.004 1073.96 143.796C1077.32 145.476 1080.07 147.436 1082.19 149.676C1084.43 151.804 1086.06 154.268 1087.07 157.068C1088.07 159.868 1088.58 163.228 1088.58 167.148C1088.58 175.548 1085.44 181.932 1079.17 186.3C1073.01 190.556 1064.16 192.684 1052.63 192.684C1044.9 192.684 1038.68 192.012 1033.98 190.668C1029.27 189.436 1025.97 188.428 1024.07 187.644L1027.59 170.676C1030.62 171.908 1034.2 173.084 1038.35 174.204C1042.6 175.324 1047.42 175.884 1052.79 175.884ZM1121.85 146.316C1121.85 155.276 1123.97 162.332 1128.23 167.484C1132.49 172.524 1138.37 175.044 1145.87 175.044C1149.12 175.044 1151.86 174.932 1154.1 174.708C1156.45 174.372 1158.36 174.036 1159.81 173.7V123.3C1158.02 122.068 1155.61 120.948 1152.59 119.94C1149.68 118.82 1146.54 118.26 1143.18 118.26C1135.79 118.26 1130.36 120.78 1126.89 125.82C1123.53 130.86 1121.85 137.692 1121.85 146.316ZM1180.14 187.812C1176.11 189.044 1171.01 190.164 1164.85 191.172C1158.81 192.18 1152.42 192.684 1145.7 192.684C1138.76 192.684 1132.54 191.62 1127.05 189.492C1121.57 187.364 1116.86 184.34 1112.94 180.42C1109.13 176.388 1106.17 171.572 1104.04 165.972C1102.02 160.26 1101.01 153.876 1101.01 146.82C1101.01 139.876 1101.85 133.604 1103.53 128.004C1105.33 122.292 1107.9 117.42 1111.26 113.388C1114.62 109.356 1118.71 106.276 1123.53 104.148C1128.34 101.908 1133.89 100.788 1140.16 100.788C1144.41 100.788 1148.17 101.292 1151.41 102.3C1154.66 103.308 1157.46 104.428 1159.81 105.66V63.492L1180.14 60.132V187.812Z" fill="black" fill-opacity="0.66"/>
</svg>
