<svg width="1194" height="255" viewBox="0 0 1194 255" fill="none" xmlns="http://www.w3.org/2000/svg">
<g clip-path="url(#clip0_1_11)">
<path d="M128 256C198.692 256 256 198.692 256 128C256 57.3076 198.692 0 128 0C57.3076 0 0 57.3076 0 128C0 198.692 57.3076 256 128 256Z" fill="white"/>
<mask id="mask0_1_11" style="mask-type:alpha" maskUnits="userSpaceOnUse" x="13" y="13" width="231" height="231">
<path d="M243.018 128.016C243.018 191.529 191.53 243.016 128.018 243.016C64.5054 243.016 13.0178 191.529 13.0178 128.016C13.0178 64.503 64.5054 13.0158 128.018 13.0158C191.53 13.0158 243.018 64.503 243.018 128.016Z" fill="white"/>
</mask>
<g mask="url(#mask0_1_11)">
<path d="M222.586 193.397C209.206 212.712 190.062 227.73 167.641 235.965" stroke="#019FD0" stroke-width="32.5079" stroke-linecap="round"/>
<path d="M230.103 75.0795C238.334 90.9231 242.985 108.925 242.985 128.013C242.985 156.958 232.289 183.406 214.635 203.618" stroke="#F84C46" stroke-width="32.5079" stroke-linecap="round"/>
<path d="M128 13.0158C184.314 13.0158 231.174 53.4999 241.061 106.952" stroke="#FB9737" stroke-width="32.5079" stroke-linecap="round"/>
<path d="M16.1825 101.093C28.2953 50.5693 73.7621 13.0158 128.001 13.0158C130.107 13.0158 132.201 13.0725 134.279 13.1844" stroke="#FBCF49" stroke-width="32.5079" stroke-linecap="round"/>
<path d="M21.3749 84.8888C15.9856 98.204 13.0179 112.758 13.0179 128.005C13.0179 159.446 25.6368 187.939 46.0865 208.696" stroke="#8DD818" stroke-width="32.5079" stroke-linecap="round"/>
<path d="M147.662 241.299C141.273 242.399 134.704 242.973 128.001 242.973C92.3753 242.973 60.533 226.771 39.4426 201.333" stroke="#00D5D4" stroke-width="32.5079" stroke-linecap="round"/>
<path d="M167.641 235.969C159.079 239.113 150.039 241.267 140.661 242.295" stroke="#019FD0" stroke-width="32.5079" stroke-linecap="round"/>
</g>
<path d="M88.3646 110.079C91.1359 106.932 95.9341 106.628 99.0809 109.4L132.07 138.453C135.217 141.224 135.521 146.022 132.749 149.169C129.978 152.317 125.18 152.621 122.032 149.849L89.0441 120.796C85.8973 118.024 85.5925 113.227 88.3646 110.079Z" fill="#5A6B65"/>
<path d="M190.155 87.6747C192.951 90.8003 192.685 95.6002 189.559 98.3966L132.114 149.802C128.989 152.599 124.188 152.332 121.392 149.207C118.595 146.083 118.862 141.282 121.987 138.485L179.432 87.0798C182.558 84.2833 187.359 84.5499 190.155 87.6747Z" fill="#85AA9F"/>
<path d="M395.275 152.662C395.275 147.275 393.366 143.123 389.551 140.206C385.792 137.288 378.975 134.342 369.101 131.369C359.225 128.395 351.37 125.085 345.535 121.438C334.37 114.424 328.787 105.279 328.787 94.0012C328.787 84.1268 332.798 75.9913 340.822 69.5948C348.902 63.1983 359.366 60 372.215 60C380.743 60 388.345 61.5714 395.022 64.7131C401.699 67.8559 406.944 72.344 410.759 78.1794C414.575 83.9583 416.483 90.3825 416.483 97.4522H395.275C395.275 91.0557 393.254 86.062 389.214 82.4712C385.231 78.8248 379.508 77.0006 372.046 77.0006C365.088 77.0006 359.674 78.4877 355.803 81.4619C351.988 84.4351 350.08 88.5871 350.08 93.9169C350.08 98.406 352.156 102.165 356.308 105.195C360.46 108.168 367.305 111.086 376.843 113.947C386.381 116.753 394.04 119.979 399.819 123.626C405.598 127.217 409.834 131.369 412.527 136.082C415.221 140.739 416.567 146.209 416.567 152.493C416.567 162.704 412.639 170.84 404.784 176.9C396.986 182.903 386.381 185.905 372.972 185.905C364.107 185.905 355.943 184.278 348.48 181.024C341.075 177.713 335.296 173.169 331.144 167.39C327.048 161.611 325 154.877 325 147.191H346.292C346.292 154.149 348.593 159.535 353.194 163.35C357.795 167.166 364.387 169.073 372.972 169.073C380.378 169.073 385.933 167.586 389.636 164.612C393.395 161.582 395.275 157.599 395.275 152.662ZM458.9 71.0254V93.1595H474.975V108.309H458.9V159.142C458.9 162.62 459.573 165.145 460.92 166.717C462.322 168.232 464.791 168.989 468.326 168.989C470.683 168.989 473.067 168.708 475.479 168.147V183.969C470.823 185.26 466.334 185.905 462.014 185.905C446.304 185.905 438.448 177.236 438.448 159.9V108.309H423.468V93.1595H438.448V71.0254H458.9ZM545.081 184.222C544.182 182.483 543.397 179.65 542.724 175.722C536.216 182.511 528.249 185.905 518.822 185.905C509.677 185.905 502.214 183.296 496.436 178.078C490.657 172.86 487.767 166.407 487.767 158.721C487.767 149.014 491.358 141.581 498.539 136.418C505.778 131.201 516.101 128.591 529.511 128.591H542.051V122.616C542.051 117.903 540.732 114.144 538.095 111.339C535.458 108.477 531.447 107.046 526.061 107.046C521.403 107.046 517.588 108.225 514.614 110.581C511.641 112.881 510.154 115.827 510.154 119.418H489.703C489.703 114.424 491.358 109.767 494.668 105.447C497.978 101.071 502.467 97.6485 508.134 95.1799C513.856 92.7113 520.225 91.477 527.238 91.477C537.899 91.477 546.399 94.1697 552.739 99.556C559.079 104.886 562.333 112.405 562.502 122.111V163.181C562.502 171.373 563.652 177.91 565.953 182.791V184.222H545.081ZM522.61 169.494C526.65 169.494 530.437 168.512 533.971 166.548C537.562 164.584 540.256 161.947 542.051 158.637V141.469H531.026C523.451 141.469 517.757 142.787 513.941 145.423C510.126 148.06 508.218 151.792 508.218 156.617C508.218 160.544 509.508 163.687 512.09 166.043C514.727 168.344 518.234 169.494 522.61 169.494ZM614.429 154.934L632.945 93.1595H654.742L618.553 198.024C612.999 213.341 603.573 221 590.275 221C587.302 221 584.019 220.495 580.428 219.485V203.663L584.3 203.915C589.462 203.915 593.333 202.961 595.914 201.054C598.551 199.203 600.627 196.06 602.142 191.628L605.087 183.802L573.106 93.1595H595.156L614.429 154.934ZM739.156 132.294H689.838V184.222H668.544V61.6834H746.391V78.8525H689.838V115.295H739.156V132.294ZM806.823 111.843C804.132 111.394 801.346 111.17 798.492 111.17C789.118 111.17 782.807 114.761 779.552 121.943V184.222H759.098V93.1595H778.623L779.13 103.343C784.071 95.4318 790.918 91.477 799.67 91.477C802.581 91.477 804.994 91.8696 806.909 92.6548L806.823 111.843ZM858.158 185.905C845.202 185.905 834.679 181.838 826.597 173.702C818.572 165.51 814.56 154.625 814.56 141.047V138.522C814.56 129.433 816.303 121.325 819.779 114.2C823.312 107.018 828.253 101.436 834.592 97.4522C840.931 93.4688 848.008 91.477 855.802 91.477C868.203 91.477 877.769 95.4318 884.501 103.343C891.29 111.255 894.689 122.448 894.689 136.923V145.171H835.186C835.799 152.689 838.298 158.637 842.674 163.014C847.108 167.39 852.662 169.578 859.336 169.578C868.71 169.578 876.342 165.791 882.231 158.216L893.253 168.736C889.604 174.179 884.73 178.415 878.612 181.445C872.55 184.418 865.732 185.905 858.158 185.905ZM855.716 107.888C850.105 107.888 845.566 109.852 842.081 113.78C838.662 117.707 836.469 123.177 835.521 130.19H874.484V128.676C874.034 121.831 872.215 116.669 869.017 113.19C865.819 109.655 861.385 107.888 855.716 107.888ZM950.735 185.905C937.78 185.905 927.256 181.838 919.174 173.702C911.15 165.51 907.137 154.625 907.137 141.047V138.522C907.137 129.433 908.88 121.325 912.356 114.2C915.89 107.018 920.831 101.436 927.17 97.4522C933.509 93.4688 940.585 91.477 948.38 91.477C960.78 91.477 970.346 95.4318 977.078 103.343C983.867 111.255 987.266 122.448 987.266 136.923V145.171H927.763C928.376 152.689 930.875 158.637 935.251 163.014C939.685 167.39 945.239 169.578 951.913 169.578C961.288 169.578 968.919 165.791 974.808 158.216L985.83 168.736C982.182 174.179 977.298 178.415 971.189 181.445C965.128 184.418 958.31 185.905 950.735 185.905ZM948.294 107.888C942.682 107.888 938.143 109.852 934.658 113.78C931.239 117.707 929.047 123.177 928.099 130.19H967.062V128.676C966.612 121.831 964.792 116.669 961.594 113.19C958.396 109.655 953.962 107.888 948.294 107.888Z" fill="white" fill-opacity="0.9"/>
</g>
<defs>
<clipPath id="clip0_1_11">
<rect width="1194" height="255" fill="white"/>
</clipPath>
</defs>
</svg>
