<svg width="32" height="32" viewBox="0 0 32 32" fill="none" xmlns="http://www.w3.org/2000/svg">
<g clip-path="url(#clip0_10_803)">
<path d="M28.074 21.7165C30.431 21.7165 31.2701 19.8026 31.2984 18.4921L31.2984 12.8353C31.289 10.4688 29.3845 9.63914 28.074 9.61086L24.859 9.62029L22.4172 7.17841C20.6258 5.38708 18.6459 5.29279 17.0337 5.84905L8.66158 5.84905L4.89035 9.62029L3.56099 9.61086C1.19454 9.62029 0.364866 11.5248 0.336582 12.8353L0.336582 18.4921C0.336582 19.5104 0.694848 20.2457 1.21339 20.7643C1.88279 21.4337 2.8256 21.7165 3.56099 21.7165L8.66159 21.7071L12.0463 25.0918C13.649 26.6946 15.4592 26.506 16.732 25.8177C18.0802 26.6003 19.4756 26.374 20.5033 25.8177C22.3417 26.902 24.2745 26.0629 25.2456 25.0918L28.074 22.2634L27.5178 21.7071L28.074 21.7165ZM23.36 23.2062C22.9357 23.6304 22.238 23.9698 21.4744 23.2062L20.5316 22.2634L19.5887 23.2062C19.1645 23.6304 18.4668 23.9698 17.7031 23.2062L16.7603 22.2634L15.8175 23.2062C15.3932 23.6304 14.6956 23.9698 13.9319 23.2062L9.7741 19.0484L3.58927 19.0484C3.02359 19.0295 3.01416 18.6995 3.01416 18.4921L3.00473 12.8635C3.02359 12.2979 3.35357 12.2884 3.56099 12.2884L6.00286 12.279L9.7741 8.50777L13.5453 8.50777L12.0463 10.0068C10.9055 11.1476 9.97209 13.5895 12.0463 15.6637C14.1204 17.7379 16.5623 16.8045 17.7031 15.6637L24.3028 22.2634L23.36 23.2062ZM28.074 19.039L24.859 19.0484L17.7031 11.8925L15.8175 13.7781C15.3932 14.2023 14.6956 14.5418 13.9319 13.7781C13.1682 13.0144 13.5076 12.3167 13.9319 11.8925L16.7603 9.06403C17.194 8.63034 18.8062 7.33869 20.5316 9.06403L23.7465 12.279L28.0457 12.279C28.6114 12.2979 28.6209 12.6278 28.6209 12.8353L28.6303 18.4638C28.6114 19.0295 28.2814 19.039 28.074 19.039Z" fill="black"/>
</g>
<defs>
<clipPath id="clip0_10_803">
<rect width="32" height="32" fill="white"/>
</clipPath>
</defs>
</svg>
