<svg width="271" height="44" viewBox="0 0 271 44" fill="none" xmlns="http://www.w3.org/2000/svg">
<path d="M97.5601 26.3602C97.5601 28.0402 97.2934 29.4135 96.7601 30.4802C96.2534 31.5202 95.5734 32.3335 94.7201 32.9202C93.8934 33.5069 92.9468 33.8935 91.8801 34.0802C90.8401 34.2935 89.8001 34.4002 88.7601 34.4002C87.9868 34.4002 87.2401 34.3602 86.5201 34.2802C85.8001 34.2002 85.1734 34.0935 84.6401 33.9602C84.0001 33.8269 83.4134 33.6669 82.8801 33.4802V29.4802C83.5468 29.6935 84.2134 29.8802 84.8801 30.0402C85.4401 30.1735 86.0401 30.2935 86.6801 30.4002C87.3201 30.5069 87.8934 30.5602 88.4001 30.5602C89.0134 30.5602 89.6001 30.5069 90.1601 30.4002C90.7201 30.2935 91.2001 30.0935 91.6001 29.8002C92.0268 29.4802 92.3601 29.0669 92.6001 28.5602C92.8668 28.0535 93.0001 27.4002 93.0001 26.6002C93.0001 25.9869 92.9201 25.4535 92.7601 25.0002C92.6001 24.5469 92.3734 24.1469 92.0801 23.8002C91.7868 23.4269 91.4401 23.0935 91.0401 22.8002C90.6401 22.5069 90.2001 22.2135 89.7201 21.9202L87.0001 20.2402C86.4134 19.8935 85.8534 19.4935 85.3201 19.0402C84.7868 18.5869 84.3201 18.0802 83.9201 17.5202C83.5201 16.9335 83.2001 16.2802 82.9601 15.5602C82.7201 14.8402 82.6001 14.0269 82.6001 13.1202C82.6001 11.6535 82.8668 10.4402 83.4001 9.4802C83.9334 8.49353 84.6134 7.7202 85.4401 7.1602C86.2668 6.57353 87.1734 6.17353 88.1601 5.9602C89.1468 5.72019 90.1068 5.60019 91.0401 5.60019C91.8134 5.60019 92.5201 5.65353 93.1601 5.7602C93.8268 5.86686 94.4001 5.98686 94.8801 6.1202C95.4401 6.25353 95.9601 6.41353 96.4401 6.60019V10.4402C95.9068 10.2535 95.3468 10.0802 94.7601 9.92019C94.2534 9.78686 93.6801 9.66686 93.0401 9.5602C92.4268 9.42686 91.8134 9.36019 91.2001 9.36019C90.0001 9.36019 89.0134 9.61353 88.2401 10.1202C87.4668 10.6002 87.0801 11.4935 87.0801 12.8002C87.0801 13.8135 87.3734 14.6269 87.9601 15.2402C88.5734 15.8269 89.3068 16.3869 90.1601 16.9202L92.4801 18.3602C93.1201 18.7602 93.7468 19.2002 94.3601 19.6802C94.9734 20.1335 95.5068 20.6802 95.9601 21.3202C96.4401 21.9335 96.8268 22.6535 97.1201 23.4802C97.4134 24.3069 97.5601 25.2669 97.5601 26.3602Z" fill="black"/>
<path d="M112.738 33.6002C112.285 33.7602 111.805 33.8935 111.298 34.0002C110.845 34.1069 110.338 34.2002 109.778 34.2802C109.245 34.3602 108.672 34.4002 108.058 34.4002C107.312 34.4002 106.618 34.3202 105.978 34.1602C105.338 34.0269 104.778 33.7602 104.298 33.3602C103.818 32.9602 103.445 32.4002 103.178 31.6802C102.912 30.9602 102.778 30.0269 102.778 28.8802V16.0402H99.1782V12.8002H102.778L103.058 8.04019L107.338 6.40019V12.8002H112.138L111.658 16.0402H107.338V28.9202C107.338 29.6935 107.485 30.1869 107.778 30.4002C108.098 30.5869 108.525 30.6802 109.058 30.6802C109.352 30.6802 109.698 30.6535 110.098 30.6002C110.498 30.5202 110.898 30.4269 111.298 30.3202C111.752 30.2135 112.232 30.0935 112.738 29.9602V33.6002Z" fill="black"/>
<path d="M127.003 34.0002L126.483 31.8002C126.056 32.3069 125.576 32.7469 125.043 33.1202C124.563 33.4402 123.976 33.7335 123.283 34.0002C122.616 34.2669 121.816 34.4002 120.883 34.4002C120.243 34.4002 119.563 34.3202 118.843 34.1602C118.123 34.0002 117.456 33.6802 116.843 33.2002C116.256 32.7202 115.763 32.0402 115.363 31.1602C114.963 30.2802 114.763 29.1202 114.763 27.6802C114.763 26.2402 115.016 25.0802 115.523 24.2002C116.056 23.2935 116.723 22.6002 117.523 22.1202C118.323 21.6135 119.189 21.2802 120.123 21.1202C121.056 20.9602 121.949 20.8802 122.803 20.8802H126.363V18.9202C126.363 18.2802 126.283 17.7869 126.123 17.4402C125.963 17.0669 125.723 16.7869 125.403 16.6002C125.109 16.4135 124.749 16.2935 124.323 16.2402C123.896 16.1869 123.403 16.1602 122.843 16.1602C122.229 16.1602 121.576 16.2135 120.883 16.3202C120.216 16.4269 119.576 16.5469 118.963 16.6802C118.376 16.8135 117.869 16.9469 117.443 17.0802C117.016 17.1869 116.749 17.2535 116.643 17.2802V13.5602C117.309 13.3469 118.016 13.1602 118.763 13.0002C119.403 12.8669 120.136 12.7335 120.963 12.6002C121.789 12.4669 122.669 12.4002 123.603 12.4002C124.589 12.4002 125.523 12.4935 126.403 12.6802C127.309 12.8402 128.096 13.1735 128.763 13.6802C129.429 14.1602 129.949 14.8535 130.323 15.7602C130.723 16.6402 130.923 17.8135 130.923 19.2802V34.0002H127.003ZM126.363 23.4802L124.243 23.5202C123.443 23.5469 122.736 23.6269 122.123 23.7602C121.509 23.8669 120.989 24.0669 120.563 24.3602C120.163 24.6269 119.856 25.0135 119.643 25.5202C119.429 26.0269 119.323 26.6669 119.323 27.4402C119.323 28.1602 119.403 28.7469 119.563 29.2002C119.723 29.6535 119.936 30.0135 120.203 30.2802C120.469 30.5202 120.776 30.6802 121.123 30.7602C121.496 30.8402 121.883 30.8802 122.283 30.8802C122.816 30.8802 123.336 30.8002 123.843 30.6402C124.349 30.4802 124.789 30.2935 125.163 30.0802C125.616 29.8402 126.016 29.5602 126.363 29.2402V23.4802Z" fill="black"/>
<path d="M145.062 36.8002C144.742 37.8935 144.342 38.7735 143.862 39.4402C143.409 40.1335 142.902 40.6669 142.342 41.0402C141.782 41.4135 141.195 41.6669 140.582 41.8002C139.969 41.9335 139.342 42.0002 138.702 42.0002C138.222 42.0002 137.729 41.9602 137.222 41.8802C136.742 41.8269 136.302 41.7602 135.902 41.6802C135.422 41.5735 134.982 41.4535 134.582 41.3202V37.7602C135.062 37.8669 135.542 37.9735 136.022 38.0802C136.422 38.1602 136.835 38.2269 137.262 38.2802C137.689 38.3335 138.049 38.3602 138.342 38.3602C139.089 38.3602 139.689 38.0802 140.142 37.5202C140.622 36.9602 141.009 36.0535 141.302 34.8002L141.582 33.6402L133.542 12.8002H138.782L143.502 28.8002L147.302 12.8002H152.302L145.062 36.8002Z" fill="black"/>
<path d="M170.126 10.0802H160.566V17.0002H169.406V20.7202H160.566V34.0002H156.006V6.00019H170.566L170.126 10.0802Z" fill="black"/>
<path d="M191.086 23.4002C191.086 25.8535 190.792 27.8002 190.206 29.2402C189.646 30.6802 188.912 31.7869 188.006 32.5602C187.099 33.3335 186.099 33.8269 185.006 34.0402C183.939 34.2802 182.912 34.4002 181.926 34.4002C180.912 34.4002 179.859 34.2802 178.766 34.0402C177.699 33.8002 176.712 33.2935 175.806 32.5202C174.926 31.7202 174.192 30.6002 173.606 29.1602C173.046 27.7202 172.766 25.8002 172.766 23.4002C172.766 21.0535 173.046 19.1602 173.606 17.7202C174.192 16.2802 174.926 15.1735 175.806 14.4002C176.712 13.6002 177.699 13.0669 178.766 12.8002C179.859 12.5335 180.912 12.4002 181.926 12.4002C182.939 12.4002 183.979 12.5202 185.046 12.7602C186.139 13.0002 187.126 13.5069 188.006 14.2802C188.912 15.0535 189.646 16.1735 190.206 17.6402C190.792 19.0802 191.086 21.0002 191.086 23.4002ZM186.526 23.4002C186.526 21.6135 186.392 20.2135 186.126 19.2002C185.859 18.1602 185.499 17.3869 185.046 16.8802C184.619 16.3469 184.126 16.0269 183.566 15.9202C183.032 15.7869 182.486 15.7202 181.926 15.7202C181.366 15.7202 180.806 15.8002 180.246 15.9602C179.712 16.0935 179.219 16.4269 178.766 16.9602C178.339 17.4669 177.992 18.2269 177.726 19.2402C177.459 20.2535 177.326 21.6402 177.326 23.4002C177.326 25.1335 177.472 26.5069 177.766 27.5202C178.086 28.5335 178.472 29.3069 178.926 29.8402C179.406 30.3469 179.912 30.6802 180.446 30.8402C180.979 30.9735 181.472 31.0402 181.926 31.0402C182.379 31.0402 182.872 30.9735 183.406 30.8402C183.939 30.6802 184.432 30.3469 184.886 29.8402C185.366 29.3069 185.752 28.5335 186.046 27.5202C186.366 26.5069 186.526 25.1335 186.526 23.4002Z" fill="black"/>
<path d="M209.27 33.5602C208.817 33.7469 208.337 33.8935 207.83 34.0002C207.377 34.1069 206.87 34.2002 206.31 34.2802C205.75 34.3602 205.177 34.4002 204.59 34.4002C203.657 34.4002 202.657 34.2935 201.59 34.0802C200.55 33.8935 199.564 33.4402 198.63 32.7202C197.724 31.9735 196.964 30.8802 196.35 29.4402C195.764 28.0002 195.47 26.0269 195.47 23.5202C195.47 21.0135 195.804 19.0269 196.47 17.5602C197.137 16.0669 197.964 14.9469 198.95 14.2002C199.937 13.4269 200.977 12.9335 202.07 12.7202C203.164 12.5069 204.137 12.4002 204.99 12.4002C205.604 12.4002 206.177 12.4535 206.71 12.5602C207.244 12.6402 207.697 12.7335 208.07 12.8402C208.524 12.9469 208.924 13.0802 209.27 13.2402V16.8802C208.79 16.7202 208.31 16.5869 207.83 16.4802C207.404 16.3735 206.95 16.2802 206.47 16.2002C205.99 16.1202 205.537 16.0802 205.11 16.0802C204.497 16.0802 203.884 16.1469 203.27 16.2802C202.684 16.4135 202.15 16.7335 201.67 17.2402C201.19 17.7469 200.79 18.4935 200.47 19.4802C200.177 20.4669 200.03 21.8135 200.03 23.5202C200.03 25.0935 200.164 26.3469 200.43 27.2802C200.697 28.1869 201.044 28.8935 201.47 29.4002C201.924 29.9069 202.43 30.2402 202.99 30.4002C203.577 30.5335 204.177 30.6002 204.79 30.6002C205.244 30.6002 205.724 30.5602 206.23 30.4802C206.764 30.4002 207.257 30.2935 207.71 30.1602C208.217 30.0535 208.737 29.9069 209.27 29.7202V33.5602Z" fill="black"/>
<path d="M226.498 34.0002L225.898 31.4802C225.338 32.0402 224.725 32.5335 224.058 32.9602C223.471 33.3335 222.791 33.6669 222.018 33.9602C221.271 34.2535 220.458 34.4002 219.578 34.4002C218.725 34.4002 217.938 34.2935 217.218 34.0802C216.498 33.8669 215.871 33.5202 215.338 33.0402C214.805 32.5602 214.391 31.9335 214.098 31.1602C213.805 30.3602 213.658 29.3735 213.658 28.2002V12.8002H218.218V27.4802C218.218 28.6269 218.418 29.4269 218.818 29.8802C219.245 30.3069 219.911 30.5202 220.818 30.5202C221.378 30.5202 221.951 30.4269 222.538 30.2402C223.125 30.0535 223.645 29.8402 224.098 29.6002C224.631 29.3335 225.151 29.0269 225.658 28.6802V12.8002H230.218V34.0002H226.498Z" fill="black"/>
<path d="M248.933 27.8802C248.933 29.2935 248.693 30.4269 248.213 31.2802C247.759 32.1335 247.159 32.8002 246.413 33.2802C245.666 33.7335 244.826 34.0269 243.893 34.1602C242.959 34.3202 242.026 34.4002 241.093 34.4002C240.479 34.4002 239.866 34.3602 239.253 34.2802C238.639 34.2002 238.066 34.0935 237.533 33.9602C236.919 33.8269 236.333 33.6669 235.773 33.4802V29.6402C236.413 29.8535 237.053 30.0269 237.693 30.1602C238.226 30.2935 238.786 30.4135 239.373 30.5202C239.959 30.6269 240.466 30.6802 240.893 30.6802C241.373 30.6802 241.826 30.6535 242.253 30.6002C242.706 30.5202 243.093 30.4002 243.413 30.2402C243.759 30.0535 244.026 29.8002 244.213 29.4802C244.426 29.1335 244.533 28.6802 244.533 28.1202C244.533 27.6669 244.453 27.2935 244.293 27.0002C244.159 26.7069 243.973 26.4535 243.733 26.2402C243.493 26.0269 243.199 25.8535 242.853 25.7202C242.506 25.5602 242.133 25.4002 241.733 25.2402L239.853 24.4802C239.399 24.2935 238.919 24.0669 238.413 23.8002C237.906 23.5069 237.426 23.1469 236.973 22.7202C236.519 22.2669 236.146 21.7069 235.853 21.0402C235.559 20.3735 235.413 19.5735 235.413 18.6402C235.413 17.5202 235.613 16.5602 236.013 15.7602C236.413 14.9602 236.946 14.3202 237.613 13.8402C238.306 13.3335 239.106 12.9735 240.013 12.7602C240.919 12.5202 241.879 12.4002 242.893 12.4002C243.613 12.4002 244.279 12.4535 244.893 12.5602C245.533 12.6402 246.093 12.7469 246.573 12.8802C247.106 13.0135 247.613 13.1602 248.093 13.3202V16.9602C247.533 16.8002 246.959 16.6535 246.373 16.5202C245.866 16.4135 245.319 16.3202 244.733 16.2402C244.173 16.1335 243.653 16.0802 243.173 16.0802C242.133 16.0802 241.306 16.2535 240.693 16.6002C240.079 16.9202 239.773 17.5069 239.773 18.3602C239.773 18.8135 239.853 19.1869 240.013 19.4802C240.173 19.7469 240.386 19.9869 240.653 20.2002C240.919 20.3869 241.213 20.5469 241.533 20.6802C241.879 20.8135 242.226 20.9469 242.573 21.0802L244.613 21.8402C245.173 22.0535 245.706 22.3202 246.213 22.6402C246.746 22.9335 247.213 23.3202 247.613 23.8002C248.013 24.2802 248.333 24.8535 248.573 25.5202C248.813 26.1869 248.933 26.9735 248.933 27.8802Z" fill="black"/>
<path d="M267.131 34.0002L266.571 32.0002C266.491 32.1069 266.291 32.2935 265.971 32.5602C265.678 32.8269 265.291 33.0935 264.811 33.3602C264.331 33.6269 263.758 33.8669 263.091 34.0802C262.425 34.2935 261.678 34.4002 260.851 34.4002C260.051 34.4002 259.185 34.2802 258.251 34.0402C257.345 33.8002 256.491 33.2935 255.691 32.5202C254.918 31.7202 254.265 30.6002 253.731 29.1602C253.198 27.7202 252.931 25.8002 252.931 23.4002C252.931 21.7735 253.078 20.3735 253.371 19.2002C253.691 18.0002 254.091 17.0002 254.571 16.2002C255.078 15.3735 255.638 14.7202 256.251 14.2402C256.891 13.7335 257.531 13.3469 258.171 13.0802C258.838 12.8135 259.465 12.6402 260.051 12.5602C260.665 12.4535 261.198 12.4002 261.651 12.4002C262.345 12.4002 262.958 12.4802 263.491 12.6402C264.025 12.8002 264.478 12.9869 264.851 13.2002C265.225 13.4135 265.518 13.6269 265.731 13.8402C265.945 14.0269 266.078 14.1602 266.131 14.2402V5.2002H270.691V34.0002H267.131ZM266.131 17.3202C266.051 17.2669 265.891 17.1735 265.651 17.0402C265.438 16.8802 265.171 16.7335 264.851 16.6002C264.531 16.4402 264.158 16.3069 263.731 16.2002C263.331 16.0669 262.891 16.0002 262.411 16.0002C261.798 16.0002 261.198 16.0802 260.611 16.2402C260.025 16.3735 259.505 16.6935 259.051 17.2002C258.598 17.7069 258.225 18.4535 257.931 19.4402C257.638 20.4002 257.491 21.7202 257.491 23.4002C257.491 25.1335 257.625 26.5069 257.891 27.5202C258.158 28.5069 258.491 29.2535 258.891 29.7602C259.318 30.2669 259.798 30.5869 260.331 30.7202C260.891 30.8269 261.451 30.8802 262.011 30.8802C262.491 30.8802 262.958 30.8135 263.411 30.6802C263.891 30.5202 264.305 30.3469 264.651 30.1602C265.025 29.9469 265.345 29.7602 265.611 29.6002C265.878 29.4135 266.051 29.2802 266.131 29.2002V17.3202Z" fill="black"/>
<mask id="mask0_100_5035" style="mask-type:alpha" maskUnits="userSpaceOnUse" x="4" y="2" width="58" height="48">
<path d="M62 23C62 37.0833 47.464 50 32 50C16.536 50 4 38.5833 4 24.5C4 10.4167 9.53603 2.5 25 2.5C40.464 2.5 62 18 62 23Z" fill="#D9D9D9"/>
</mask>
<g mask="url(#mask0_100_5035)">
<circle cx="37" cy="21" r="21" fill="#4AB6E9"/>
<circle cx="37" cy="21" r="10.5" fill="black"/>
<path fill-rule="evenodd" clip-rule="evenodd" d="M37 42C48.598 42 58 32.598 58 21C58 9.40202 48.598 0 37 0C25.402 0 16 9.40202 16 21C16 32.598 25.402 42 37 42ZM37 39.0469C46.967 39.0469 55.0469 30.967 55.0469 21C55.0469 11.033 46.967 2.95312 37 2.95312C27.033 2.95312 18.9531 11.033 18.9531 21C18.9531 30.967 27.033 39.0469 37 39.0469Z" fill="black"/>
<path fill-rule="evenodd" clip-rule="evenodd" d="M36.0156 13.4531C36.0156 12.9095 36.4563 12.4688 37 12.4688C37.5437 12.4688 37.9844 12.9095 37.9844 13.4531V19.9509C38.5728 20.2913 38.9688 20.9275 38.9688 21.6562C38.9688 21.706 38.9669 21.7553 38.9633 21.8041L43.2516 24.28C43.7224 24.5518 43.8838 25.1538 43.6119 25.6246C43.3401 26.0955 42.7381 26.2568 42.2672 25.985L37.848 23.4335C37.5912 23.5563 37.3036 23.625 37 23.625C35.9127 23.625 35.0312 22.7436 35.0312 21.6562C35.0312 20.9275 35.4272 20.2913 36.0156 19.9509V13.4531Z" fill="white"/>
</g>
<path d="M17.4999 0C43.4999 0 73.9999 23 73.9999 39.0001C66.9999 26 43.3979 8 20.9999 8C12.9999 8 3.49987 9.5 3.49987 22C-2.50016 12.5 1.5 0 17.4999 0Z" fill="black"/>
</svg>
