<svg width="183" height="38" viewBox="0 0 183 38" fill="none" xmlns="http://www.w3.org/2000/svg">
<path d="M54.6476 10.5195C54.2463 11.5599 53.8538 12.5821 53.4487 13.6315C53.1029 13.4755 52.7873 13.3389 52.4756 13.192C51.7698 12.8589 51.0185 12.6396 50.2481 12.5417C49.5615 12.4533 48.9002 12.5417 48.3953 13.1205C48.0167 13.5522 47.9158 14.0802 47.9549 14.6407C48.0167 15.525 48.5859 16.0361 49.2548 16.4614C49.8253 16.8281 50.4121 17.1636 50.9965 17.5018C51.7802 17.9712 52.5564 18.455 53.2101 19.1079C54.1277 20.0273 54.6539 21.1392 54.6893 22.4735C54.7133 23.3136 54.6716 24.1433 54.3914 24.9444C53.9472 26.2228 53.1066 27.1175 51.9354 27.6832C51.1576 28.0459 50.3207 28.2554 49.4681 28.3009C48.489 28.3708 47.5052 28.3096 46.5414 28.1189C45.7008 27.9575 44.891 27.6571 44.1434 27.2294V23.5165C44.4602 23.6634 44.753 23.7948 45.0382 23.9352C45.9835 24.406 46.9578 24.7988 48.0028 24.9561C48.7197 25.0667 49.4454 25.0979 50.1345 24.7701C50.7415 24.4814 50.9889 23.9599 51.052 23.3071C51.1429 22.3721 50.6734 21.7179 50.0032 21.2146C49.4302 20.7855 48.8005 20.4343 48.1947 20.0546C47.7984 19.8049 47.3907 19.5747 46.9957 19.3198C46.2733 18.8697 45.65 18.269 45.1657 17.5564C44.6214 16.7704 44.3269 15.8299 44.3226 14.8644C44.3226 14.0763 44.3226 13.2973 44.5751 12.5378C44.7671 11.9069 45.0903 11.3267 45.5221 10.8376C45.9538 10.3484 46.4838 9.96205 47.0752 9.7054C47.746 9.42674 48.4551 9.25823 49.1766 9.20601C51.023 9.01354 53.1369 9.67939 54.6401 10.5195" fill="#22AB9D"/>
<path d="M73.8487 28.1294H70.2492C70.1685 27.8472 70.147 14.4354 70.2278 13.8879H73.5218V15.6136L73.6026 15.6383C73.6669 15.5499 73.7363 15.464 73.7957 15.3782C74.457 14.3677 75.3896 13.8267 76.5495 13.6447C77.3674 13.5063 78.2055 13.5668 78.9966 13.8215C80.2259 14.226 80.9806 15.1103 81.3946 16.3419C81.6393 17.0852 81.763 17.8652 81.7606 18.6502C81.7808 21.679 81.7707 24.7078 81.7681 27.7354C81.7681 27.855 81.7568 27.9707 81.7505 28.0813C81.4526 28.1658 78.7468 28.1944 78.0652 28.1203C78.0564 28.0137 78.04 27.8992 78.04 27.7848C78.04 25.0538 78.04 22.3163 78.04 19.5814C78.04 18.857 77.9428 18.1508 77.6008 17.5006C77.5003 17.2981 77.3514 17.1253 77.1681 16.9985C76.9848 16.8718 76.7732 16.7953 76.5533 16.7762C75.9979 16.68 75.4281 16.8127 74.9669 17.1456C74.5971 17.4161 74.4115 17.8088 74.2601 18.2198C74.0312 18.8575 73.9141 19.5321 73.9143 20.2121C73.8903 22.7454 73.879 25.284 73.8625 27.8108C73.8625 27.9031 73.855 27.9942 73.8487 28.1294Z" fill="#22AB9D"/>
<path d="M103.758 20.9924C103.758 20.7219 103.769 20.4722 103.758 20.2121C103.74 19.4413 103.586 18.6804 103.304 17.9661C103.177 17.6444 102.971 17.3624 102.706 17.1481C102.109 16.6735 101.435 16.6696 100.748 16.8243C100.533 16.8728 100.331 16.9673 100.154 17.1017C99.9764 17.2362 99.8286 17.4075 99.7198 17.6046C99.3412 18.264 99.1847 18.987 99.1267 19.7322C99.0812 20.3005 99.1014 20.8753 99.0989 21.4488C99.0854 22.1943 99.1955 22.9367 99.4245 23.644C99.6327 24.2657 99.9483 24.8145 100.588 25.0512C101.08 25.2251 101.611 25.2427 102.113 25.1019C102.469 25.0208 102.782 24.8009 102.985 24.4881C103.18 24.1913 103.337 23.8695 103.452 23.5309C103.703 22.7111 103.806 21.8505 103.755 20.9924M107.508 20.9416C107.489 22.2837 107.319 23.592 106.806 24.8431C106.356 26.0032 105.538 26.9722 104.485 27.5923C103.76 28.0042 102.957 28.2521 102.132 28.3193C101.322 28.4112 100.503 28.353 99.7135 28.1476C98.8588 27.9208 98.0744 27.4732 97.4342 26.8471C96.3539 25.8067 95.7506 24.5063 95.5222 23.0198C95.4042 22.3264 95.3379 21.6247 95.324 20.9208C95.3076 19.8237 95.4653 18.7312 95.791 17.6865C96.3249 16.0362 97.2916 14.7566 98.8843 14.053C99.5407 13.7707 100.24 13.6087 100.95 13.5744C101.765 13.5146 102.583 13.6103 103.363 13.8566C104.046 14.0697 104.679 14.421 105.228 14.89C105.777 15.359 106.229 15.9362 106.558 16.5876C107.096 17.5929 107.398 18.7138 107.441 19.8609C107.453 20.2186 107.489 20.5762 107.513 20.9351" fill="#22AB9D"/>
<path d="M64.6899 19.3174C64.7499 18.7418 64.6473 18.1606 64.3946 17.6437C63.9024 16.537 62.8915 16.1715 61.8477 16.4537C60.8255 16.7294 60.1364 17.8634 60.2197 19.3148L64.6899 19.3174ZM67.3403 24.3216V27.3751C66.9114 27.6386 66.4487 27.8386 65.9659 27.9695C65.2895 28.1949 64.583 28.3098 63.8721 28.3102C63.4846 28.3102 63.0972 28.3661 62.711 28.3557C61.8041 28.3505 60.9058 28.1742 60.0606 27.8355C58.5979 27.2139 57.5832 26.1358 56.9736 24.6428C56.5407 23.5842 56.3918 22.4697 56.364 21.3344C56.3157 20.0936 56.4749 18.8535 56.8348 17.6684C57.3396 16.0727 58.242 14.7956 59.7729 14.096C60.8812 13.598 62.1021 13.4273 63.2991 13.6031C63.9544 13.6775 64.5923 13.868 65.1846 14.1662C66.5603 14.8827 67.3907 16.048 67.8135 17.5474C68.0325 18.3553 68.1296 19.1931 68.1013 20.0313C68.0899 20.6556 68.1013 21.2811 68.1013 21.9665C67.209 21.9938 66.3344 21.9743 65.461 21.9795C64.5675 21.9795 63.6744 21.9795 62.7817 21.9795H60.1515C60.0884 23.7832 61.1612 25.3607 63.0189 25.4062C64.471 25.4352 65.9057 25.0768 67.1838 24.3658C67.2349 24.3469 67.2872 24.3313 67.3403 24.319" fill="#22AB9D"/>
<path d="M149.389 28.1267H146.82C145.712 23.4619 144.608 18.8114 143.495 14.1296H145.852C146.621 18.0922 147.61 22.0066 148.182 26.0225C148.467 24.6947 148.727 23.3617 149.052 22.0443C149.376 20.727 149.766 19.4096 150.122 18.0896C150.478 16.7696 150.82 15.4574 151.173 14.1257H153.538C153.857 14.8683 156.303 24.7832 156.491 25.9887C156.659 25.3385 156.702 24.6765 156.827 24.025C156.952 23.3734 157.052 22.6907 157.181 22.0261C157.309 21.3616 157.461 20.7062 157.606 20.0455C157.751 19.3849 157.904 18.7541 158.045 18.1078C158.186 17.4615 158.32 16.7839 158.464 16.1233C158.608 15.4626 158.761 14.8046 158.912 14.127H161.184C161.099 14.5172 161.021 14.88 160.931 15.2467C160.565 16.7657 160.196 18.2829 159.826 19.7984C159.542 20.9584 159.25 22.1146 158.964 23.2746C158.633 24.6271 158.303 25.9792 157.973 27.3308C157.938 27.4725 157.892 27.6117 157.854 27.7522C157.765 28.1085 157.765 28.1124 157.432 28.1124C156.693 28.1124 155.956 28.1124 155.173 28.1124C154.202 24.2461 153.163 20.4044 152.294 16.5108C151.515 20.437 150.336 24.237 149.391 28.1189" fill="#22AB9D"/>
<path d="M93.5875 14.7096C93.2089 15.6694 92.8467 16.5875 92.4794 17.5226C91.9948 17.3184 91.5543 17.1324 91.1151 16.9478C90.6295 16.7316 90.1136 16.5964 89.5867 16.5472C89.2534 16.5245 88.9187 16.5389 88.5884 16.5901C88.2022 16.6434 87.9057 16.8502 87.8312 17.2755C87.7517 17.7293 87.8413 18.1299 88.2527 18.3783C88.8005 18.7047 89.3482 19.0285 89.9098 19.3276C90.6923 19.736 91.5139 20.0741 92.2207 20.6281C92.9274 21.1821 93.4827 21.8623 93.6291 22.796C93.8374 24.1043 93.768 25.3736 92.9741 26.4933C92.3305 27.3971 91.4193 27.8822 90.3869 28.1293C89.4138 28.3634 88.4269 28.3894 87.4261 28.3256C86.4715 28.2869 85.5289 28.0929 84.6331 27.7508C84.4665 27.6832 84.3037 27.6026 84.1371 27.5259V24.2747C84.228 24.3072 84.31 24.3267 84.3895 24.3631C85.3776 24.8584 86.4323 25.1981 87.5182 25.371C88.1139 25.4659 88.7222 25.488 89.3179 25.2734C90.1206 24.9834 90.402 23.8806 89.6763 23.3227C89.2566 23.0132 88.8158 22.735 88.3575 22.4904C87.7201 22.138 87.0613 21.8311 86.4202 21.4877C85.7427 21.1475 85.1584 20.6383 84.7202 20.0065C84.3366 19.4327 84.1311 18.7525 84.1308 18.0558C84.1119 17.5915 84.1318 17.1264 84.1901 16.6656C84.3693 15.5341 85.0117 14.7356 85.9835 14.2103C86.8253 13.7564 87.7378 13.5899 88.673 13.5457C89.9554 13.4816 91.2361 13.7034 92.4276 14.1959C92.7962 14.3468 93.1597 14.5185 93.5913 14.7161" fill="#22AB9D"/>
<path d="M170.253 19.606C170.265 19.4402 170.265 19.2737 170.253 19.1079C170.195 18.66 170.111 18.2161 170.001 17.7788C169.869 17.2309 169.574 16.7393 169.158 16.373C168.157 15.5381 166.516 15.6447 165.61 16.598C164.819 17.4251 164.62 18.4849 164.503 19.606H170.253ZM172.044 25.3151V27.44C171.349 27.7873 170.624 28.1046 169.84 28.2112C169.187 28.3072 168.528 28.3537 167.868 28.3504C165.532 28.301 163.84 27.1995 162.854 24.9912C162.371 23.9079 162.195 22.7635 162.164 21.584C162.134 20.355 162.222 19.1378 162.583 17.9596C163.013 16.5667 163.697 15.3586 164.946 14.5653C165.623 14.1129 166.411 13.8697 167.218 13.8643C167.81 13.8643 168.4 13.837 168.985 14.0113C170.324 14.4014 171.266 15.2793 171.887 16.529C172.394 17.554 172.641 18.6943 172.606 19.8439C172.594 20.4019 172.606 20.9611 172.606 21.5697H164.464C164.489 22.4033 164.551 23.1758 164.811 23.9184C164.908 24.2066 165.029 24.4858 165.172 24.7533C165.684 25.6909 166.505 26.1123 167.517 26.2267C168.493 26.321 169.477 26.2267 170.42 25.9484C170.879 25.8184 171.312 25.6025 171.756 25.4282L172.033 25.3177" fill="#22AB9D"/>
<path d="M133.407 21.0679C133.407 22.0887 133.487 23.1317 133.808 24.1448C134.169 25.2801 134.834 26.0799 136.025 26.2867C136.419 26.3577 136.82 26.3782 137.22 26.3478C138.126 26.2724 138.884 25.8848 139.373 25.0551C139.731 24.4197 139.957 23.7148 140.037 22.9848C140.162 22.05 140.195 21.1044 140.134 20.1627C140.097 19.4465 139.979 18.7373 139.782 18.0495C139.441 16.9271 138.763 16.1534 137.606 15.8985C136.933 15.7479 136.234 15.7838 135.579 16.0025C135.105 16.146 134.687 16.4394 134.384 16.8413C134.088 17.2466 133.869 17.706 133.739 18.1951C133.497 19.1318 133.386 20.0989 133.407 21.0679ZM142.486 21.1472C142.513 22.3225 142.33 23.4929 141.946 24.6C141.222 26.6521 139.86 27.963 137.716 28.2868C136.558 28.4624 135.426 28.3519 134.356 27.8122C133.355 27.3089 132.627 26.5208 132.084 25.535C131.659 24.728 131.375 23.8502 131.245 22.9419C131.121 22.1803 131.075 21.4076 131.106 20.6361C131.158 19.1874 131.39 17.7842 132.102 16.5019C132.891 15.0883 134.052 14.2104 135.614 13.9503C136.681 13.7722 137.752 13.7644 138.783 14.1831C139.659 14.5217 140.425 15.1076 140.992 15.8738C141.791 16.9662 142.21 18.2068 142.356 19.5528C142.414 20.0808 142.442 20.6127 142.483 21.142" fill="#22AB9D"/>
<path d="M113.22 28.1243H109.589V13.8905H112.829C112.861 14.5564 112.891 15.2261 112.92 15.8933C113.502 15.126 114 14.3223 114.887 13.9022C115.775 13.4822 116.688 13.5199 117.664 13.6837C117.673 14.9088 117.664 16.126 117.664 17.3784C117.423 17.3511 117.221 17.3368 117.024 17.3017C116.409 17.2033 115.781 17.2478 115.185 17.4317C114.302 17.6788 113.75 18.2913 113.459 19.164C113.286 19.6952 113.2 20.2526 113.206 20.813C113.206 23.094 113.206 25.375 113.206 27.6561L113.22 28.1243Z" fill="#22AB9D"/>
<path d="M124.811 11.6198H119.881V9.52469C120.154 9.44536 131.366 9.41284 131.997 9.49347V11.6094C131.47 11.6354 130.93 11.6172 130.393 11.6211C129.857 11.625 129.305 11.6211 128.761 11.6211H127.09V28.0903H124.819L124.811 11.6198Z" fill="#22AB9D"/>
<path d="M177.092 28.119H174.923V14.1753C175.175 14.0946 176.447 14.0777 176.942 14.1597V16.5291L177.022 16.5551C177.176 16.308 177.332 16.0584 177.485 15.8087C177.874 15.1288 178.428 14.5656 179.094 14.1753C179.442 13.9684 179.838 13.8611 180.24 13.8644C180.602 13.8735 180.966 13.8553 181.329 13.8644C181.556 13.8735 181.783 13.9204 182.06 13.9542C181.959 14.6994 181.863 15.4029 181.762 16.1455C181.518 16.1156 181.305 16.0909 181.093 16.0623C180.176 15.9322 179.309 16.0388 178.558 16.6527C178.016 17.0948 177.683 17.6931 177.448 18.3511C177.195 19.0917 177.073 19.8731 177.089 20.6581C177.099 22.999 177.089 25.3295 177.089 27.6651L177.092 28.119Z" fill="#22AB9D"/>
<path d="M20.4847 35.1468C23.8557 34.8438 27.734 33.066 30.4954 29.7745C33.5938 26.076 34.8369 21.7662 34.2551 16.9284C33.2972 8.98377 26.1438 1.86625 16.677 3.04188C8.63511 4.04065 2.01935 11.5483 3.07696 21.0249C4.02478 29.5404 10.98 34.6981 16.8689 35.1234C16.8907 34.8373 16.9113 34.5521 16.9307 34.2677C16.9925 33.425 17.0569 32.5849 17.1112 31.7435C17.1452 31.2402 17.1591 30.7369 17.1945 30.2336C17.2386 29.6289 17.3055 29.0254 17.3484 28.4207C17.4153 27.4987 17.4746 26.574 17.5314 25.6507C17.5971 24.645 17.664 23.6393 17.7321 22.6336C17.7662 22.1303 17.8078 21.6283 17.8495 21.125C17.8722 20.8324 17.8848 20.5476 17.568 20.3903C17.5251 20.3695 17.4961 20.32 17.4608 20.2836C17.1984 20.0096 17.0336 19.6522 16.9933 19.2695C16.953 18.8868 17.0394 18.5012 17.2386 18.1756C17.5819 17.5851 18.4515 17.1703 19.1734 17.433C19.8536 17.6801 20.2525 18.1652 20.3534 18.8882C20.4443 19.5463 20.1944 20.0769 19.6908 20.4826L19.4876 20.6413L20.4847 35.1468ZM18.7178 37.2458C13.8045 37.1456 9.58671 35.4069 6.15894 31.8267C2.65038 28.1554 0.949114 23.6779 1.09425 18.5306C1.22803 13.7591 2.96464 9.6288 6.26874 6.26707C9.89845 2.562 14.3233 0.79205 19.4359 0.992324C24.0105 1.17946 28.3328 3.20195 31.4801 6.62798C34.6274 10.054 36.3502 14.6121 36.2807 19.3291C36.2416 23.9926 34.6337 28.0917 31.5177 31.4886C28.047 35.2717 23.7307 37.1326 18.7291 37.2419" fill="#22AB9D"/>
<path d="M22.8207 28.2412C22.7084 27.3166 22.591 26.4049 22.5102 25.4803C24.5686 24.081 25.7525 22.1251 25.9355 19.6034C26.0154 18.6335 25.9032 17.6569 25.6058 16.733C25.3083 15.809 24.8318 14.957 24.2052 14.2285C23.5402 13.4229 22.7172 12.7716 21.7903 12.3174C20.8634 11.8633 19.8536 11.6166 18.8275 11.5936C17.8014 11.5706 16.7822 11.7719 15.837 12.1841C14.8918 12.5964 14.0421 13.2103 13.3438 13.9854C11.7915 15.7072 11.1629 17.7802 11.4658 20.1093C11.7687 22.4385 12.9437 24.2084 14.8457 25.4933C14.7422 26.4036 14.6374 27.314 14.5327 28.2243C11.1251 26.7014 8.42552 22.7103 8.9051 18.0663C9.07605 16.3044 9.69276 14.6197 10.6936 13.1804C11.6944 11.7412 13.0443 10.5978 14.6084 9.86452C16.1724 9.13128 17.8958 8.83387 19.6064 9.00203C21.3169 9.17018 22.9547 9.798 24.356 10.8227C25.7573 11.8475 26.873 13.2333 27.5917 14.8416C28.3104 16.4499 28.6068 18.2244 28.4514 19.9877C28.296 21.7511 27.6942 23.4415 26.7061 24.8901C25.718 26.3387 24.3782 27.4947 22.8207 28.2425" fill="#22AB9D"/>
</svg>
